<svg width="123" height="48" viewBox="0 0 123 48" fill="none" xmlns="http://www.w3.org/2000/svg">
<path d="M5.73724 31.348C5.86857 30.9095 6.02337 30.4689 6.20051 30.0278C6.41701 29.4896 6.04874 28.8994 5.4632 28.8662L3.22362 28.7391L1.77437 28.6569C1.42388 28.6371 1.0908 28.8307 0.946211 29.1465C0.595725 29.9124 0.293684 30.679 0.0423625 31.4415C-0.152941 32.0334 0.355763 32.6214 0.979524 32.5328L1.85612 32.4084L5.03776 31.9561C5.37311 31.9086 5.6411 31.6683 5.73724 31.348Z" fill="#FF7C04"/>
<path d="M9.7422 24.3949C10.193 23.8791 10.6745 23.3738 11.1858 22.8819C11.545 22.5365 11.5389 21.9662 11.1586 21.6436L9.69339 20.402L8.98864 19.8047C8.65932 19.5259 8.16541 19.5319 7.84974 19.8256C7.06437 20.5571 6.32818 21.3117 5.64159 22.0832C5.25742 22.5149 5.40578 23.1899 5.93985 23.4182L6.53182 23.6713L8.75772 24.6233C9.1018 24.7705 9.49699 24.6752 9.7422 24.3949Z" fill="#FF7C04"/>
<path d="M18.845 17.8054C19.1894 17.6588 19.4003 17.3154 19.3616 16.9468L19.1122 14.5641L19.0459 13.9306C18.9862 13.3591 18.3786 13.0163 17.8465 13.248C16.8946 13.6626 15.9442 14.1286 15.0017 14.6482C14.6229 14.8571 14.4684 15.3202 14.6387 15.7141L15.0036 16.5578L15.7618 18.3111C15.9586 18.7663 16.5078 18.9438 16.9495 18.7095C17.5781 18.3761 18.211 18.0749 18.845 17.8054Z" fill="#FF7C04"/>
<path d="M37.9865 11.9071L36.2216 0.712961C36.1296 0.12877 35.4725 -0.18183 34.954 0.113068L24.8326 5.87013C24.2338 6.21062 24.2728 7.07665 24.9 7.36333L25.5366 7.65448C25.8773 7.81034 26.0805 8.16763 26.0249 8.53432C24.1513 20.876 12.6333 33.0293 9.41416 31.7771C6.12504 30.4978 17.5507 21.4669 18.8137 20.4805C18.8906 20.4204 18.953 20.3504 19.0049 20.2686L21.3285 16.5916C21.7494 15.9251 21.0942 15.0875 20.3425 15.3443C9.41908 19.0733 -4.59664 40.2436 11.0848 35.4905C25.3436 31.1687 33.3189 17.6321 35.6724 13.1757C35.8832 12.7765 36.3726 12.6113 36.7867 12.8008C37.4036 13.083 38.0913 12.5714 37.9865 11.9071Z" fill="#FF7C04"/>
<path d="M27.0065 39.2627C34.7343 34.1141 38.8114 30.6953 41.9545 24.0703C42.0869 23.7908 42.4336 23.6843 42.7001 23.8465L42.9692 24.0098C43.3318 24.23 43.7947 23.9534 43.7656 23.534L43.244 16.0845C43.2198 15.7377 42.8624 15.513 42.5339 15.6379L35.311 18.3825C34.9068 18.5361 34.8558 19.0806 35.2248 19.3049C35.4425 19.4372 35.5347 19.7063 35.4394 19.9407C34.7936 21.5288 34.8228 21.3026 33.9276 22.7891C32.5708 25.0436 30.9288 27.1453 29.086 29.0762C27.243 30.9883 25.134 32.7335 22.9926 34.2584C18.7075 37.333 14.0017 39.9272 8.98206 41.9115C8.90675 41.9414 8.83073 41.9706 8.75502 41.9998C8.37269 42.146 8.3023 42.6452 8.62552 42.8938C12.1633 45.616 16.6096 47.2406 21.4422 47.2406C31.2937 47.2406 39.5468 40.5014 41.7429 31.4376C41.87 30.9125 41.1918 30.5649 40.8364 30.9752C35.7021 36.9043 30.5239 39.2578 27.4524 40.1848C26.8786 40.3578 26.5092 39.5938 27.0065 39.2627Z" fill="#374151"/>
<path d="M58.1611 6.09668C60.6095 6.09668 62.4939 6.73091 63.8144 7.99937C65.1486 9.26783 65.8157 11.0341 65.8157 13.2983C65.8157 15.5624 65.1486 17.3218 63.8144 18.5767C62.4939 19.8315 60.6095 20.4589 58.1611 20.4589H54.0966V6.09668H58.1611ZM58.1611 19.6815C60.3481 19.6815 62.0125 19.1222 63.1541 18.0038C64.2958 16.8717 64.8666 15.3032 64.8666 13.2983C64.8666 11.2797 64.2958 9.70431 63.1541 8.57222C62.0125 7.44015 60.3481 6.87412 58.1611 6.87412H55.025V19.6815H58.1611ZM78.7129 14.1575C78.7129 14.6485 78.6992 15.0168 78.6717 15.2623H68.9951C69.0227 16.258 69.2427 17.0968 69.6554 17.7788C70.068 18.4608 70.6113 18.9722 71.2853 19.3132C71.9593 19.6542 72.6952 19.8247 73.493 19.8247C74.5934 19.8247 75.5149 19.5587 76.2577 19.0268C77.0004 18.4812 77.4682 17.7447 77.6607 16.8172H78.6304C78.4103 17.9493 77.8464 18.87 76.9385 19.5792C76.0307 20.2748 74.8822 20.6226 73.493 20.6226C72.4476 20.6226 71.5123 20.3907 70.687 19.927C69.8617 19.4633 69.2153 18.8017 68.7475 17.9424C68.2799 17.0696 68.046 16.0534 68.046 14.8941C68.046 13.7347 68.273 12.7254 68.7269 11.8661C69.1946 11.0068 69.8411 10.3522 70.6663 9.90206C71.4916 9.43834 72.4339 9.20645 73.493 9.20645C74.5658 9.20645 75.4943 9.43834 76.2783 9.90206C77.0761 10.3522 77.6813 10.9591 78.094 11.7229C78.5066 12.473 78.7129 13.2846 78.7129 14.1575ZM77.7845 14.5053C77.8257 13.5233 77.6469 12.6913 77.248 12.0093C76.8629 11.3273 76.3334 10.8227 75.6593 10.4954C74.9854 10.1544 74.2564 9.98389 73.4723 9.98389C72.6883 9.98389 71.9593 10.1544 71.2853 10.4954C70.6251 10.8227 70.0818 11.3273 69.6554 12.0093C69.2427 12.6913 69.0227 13.5233 68.9951 14.5053H77.7845ZM85.2531 20.6226C84.0017 20.6226 82.9772 20.3498 82.1789 19.8042C81.3949 19.2587 80.9552 18.4812 80.8584 17.4719H81.8075C81.8766 18.1948 82.2067 18.7677 82.7979 19.1904C83.4033 19.6132 84.2215 19.8247 85.2531 19.8247C86.1062 19.8247 86.7799 19.6132 87.2751 19.1904C87.7845 18.754 88.0385 18.222 88.0385 17.5946C88.0385 17.1582 87.9012 16.8036 87.6258 16.5308C87.3647 16.2444 87.0346 16.0261 86.6355 15.8761C86.2371 15.726 85.6935 15.5624 85.0055 15.3851C84.1802 15.1669 83.5137 14.9554 83.0042 14.7508C82.4955 14.5326 82.0623 14.2121 81.7044 13.7893C81.3473 13.3665 81.1679 12.8004 81.1679 12.0912C81.1679 11.5728 81.3266 11.0955 81.6425 10.659C81.9591 10.2089 82.3995 9.85429 82.9629 9.59517C83.5271 9.33605 84.1667 9.20645 84.8817 9.20645C86.0514 9.20645 86.9934 9.49972 87.7083 10.0862C88.4376 10.659 88.8296 11.4569 88.8844 12.4799H87.9559C87.9147 11.7434 87.6258 11.1432 87.0894 10.6795C86.5529 10.2158 85.8102 9.98389 84.8611 9.98389C84.0636 9.98389 83.4033 10.1885 82.8804 10.5977C82.3582 11.0068 82.0964 11.5047 82.0964 12.0912C82.0964 12.6095 82.2408 13.0323 82.5296 13.3596C82.8328 13.6734 83.197 13.9189 83.6232 14.0962C84.0636 14.2598 84.6413 14.4371 85.3563 14.6281C86.1403 14.8327 86.7664 15.0373 87.2338 15.2419C87.7155 15.4328 88.121 15.7193 88.4511 16.1011C88.7812 16.4694 88.9463 16.9673 88.9463 17.5946C88.9463 18.1675 88.7884 18.6858 88.4717 19.1495C88.1559 19.6132 87.7155 19.9747 87.1513 20.2339C86.5879 20.493 85.9546 20.6226 85.2531 20.6226ZM91.1968 14.8941C91.1968 13.7347 91.4237 12.7254 91.8777 11.8661C92.3451 11.0068 92.9846 10.3522 93.7964 9.90206C94.6217 9.43834 95.5637 9.20645 96.6231 9.20645C98.0261 9.20645 99.1743 9.55425 100.069 10.2499C100.976 10.9455 101.541 11.8797 101.761 13.0527H100.791C100.612 12.098 100.144 11.3478 99.3878 10.8023C98.645 10.2567 97.7237 9.98389 96.6231 9.98389C95.7978 9.98389 95.0479 10.168 94.3742 10.5363C93.7004 10.8909 93.1569 11.4433 92.7442 12.1935C92.3451 12.93 92.1459 13.8302 92.1459 14.8941C92.1459 15.9715 92.3451 16.8786 92.7442 17.6151C93.1569 18.3516 93.7004 18.904 94.3742 19.2723C95.0479 19.6405 95.7978 19.8247 96.6231 19.8247C97.7237 19.8247 98.645 19.5519 99.3878 19.0063C100.144 18.4608 100.612 17.7106 100.791 16.7558H101.761C101.541 17.9151 100.976 18.8495 100.069 19.5587C99.1608 20.2679 98.0126 20.6226 96.6231 20.6226C95.5637 20.6226 94.6217 20.3907 93.7964 19.927C92.9846 19.4633 92.3451 18.8017 91.8777 17.9424C91.4237 17.0696 91.1968 16.0534 91.1968 14.8941ZM109.521 20.6226C108.475 20.6226 107.533 20.3907 106.694 19.927C105.854 19.4633 105.194 18.8017 104.713 17.9424C104.245 17.0696 104.012 16.0534 104.012 14.8941C104.012 13.7484 104.252 12.7459 104.734 11.8866C105.215 11.0137 105.875 10.3522 106.715 9.90206C107.567 9.43834 108.516 9.20645 109.562 9.20645C110.607 9.20645 111.549 9.43834 112.389 9.90206C113.227 10.3522 113.88 11.0068 114.349 11.8661C114.829 12.7254 115.071 13.7347 115.071 14.8941C115.071 16.0534 114.829 17.0696 114.349 17.9424C113.867 18.8017 113.2 19.4633 112.347 19.927C111.508 20.3907 110.566 20.6226 109.521 20.6226ZM109.521 19.8042C110.332 19.8042 111.089 19.6269 111.79 19.2723C112.505 18.904 113.076 18.3516 113.503 17.6151C113.929 16.8786 114.142 15.9715 114.142 14.8941C114.142 13.8302 113.929 12.93 113.503 12.1935C113.076 11.4569 112.512 10.9114 111.811 10.5567C111.109 10.1885 110.352 10.0044 109.541 10.0044C108.729 10.0044 107.973 10.1885 107.272 10.5567C106.584 10.9114 106.027 11.4569 105.6 12.1935C105.174 12.93 104.961 13.8302 104.961 14.8941C104.961 15.9715 105.167 16.8786 105.58 17.6151C106.006 18.3516 106.563 18.904 107.251 19.2723C107.953 19.6269 108.709 19.8042 109.521 19.8042ZM56.3042 25.912V40.131H53.9521V25.912H56.3042ZM65.4376 28.674C66.3316 28.674 67.1294 28.8581 67.8309 29.2264C68.5461 29.5946 69.1032 30.1402 69.5021 30.8631C69.901 31.586 70.1005 32.4589 70.1005 33.4819V40.131H67.769V33.8297C67.769 32.8203 67.5145 32.0497 67.0056 31.5178C66.4966 30.9722 65.802 30.6994 64.9218 30.6994C64.0414 30.6994 63.3399 30.9722 62.8173 31.5178C62.3083 32.0497 62.0539 32.8203 62.0539 33.8297V40.131H59.7018V28.8581H62.0539V30.147C62.439 29.6833 62.9273 29.3218 63.5188 29.0627C64.1239 28.8036 64.7635 28.674 65.4376 28.674ZM77.8048 38.0442L81.0235 28.8581H83.52L79.1871 40.131H76.3812L72.069 28.8581H74.5862L77.8048 38.0442ZM96.0263 34.2184C96.0263 34.6412 95.9993 35.0231 95.9438 35.3641H87.2576C87.3267 36.2643 87.6639 36.9872 88.2686 37.5327C88.8741 38.0783 89.6168 38.3511 90.4969 38.3511C91.7626 38.3511 92.6569 37.826 93.1791 36.7758H95.7168C95.3732 37.8123 94.7471 38.6648 93.8393 39.3331C92.9458 39.9878 91.8316 40.3152 90.4969 40.3152C89.4105 40.3152 88.4337 40.0765 87.5671 39.5991C86.7148 39.1081 86.0403 38.4261 85.5451 37.5532C85.0642 36.6666 84.823 35.6437 84.823 34.4844C84.823 33.325 85.0571 32.3088 85.5245 31.436C86.0062 30.5494 86.6736 29.8675 87.5258 29.3901C88.3924 28.9127 89.3827 28.674 90.4969 28.674C91.5698 28.674 92.526 28.9059 93.3648 29.3696C94.2043 29.8333 94.8574 30.488 95.3248 31.3337C95.793 32.1656 96.0263 33.1272 96.0263 34.2184ZM93.5711 33.4819C93.5576 32.6226 93.2481 31.9338 92.6426 31.4155C92.0379 30.8972 91.288 30.6381 90.3937 30.6381C89.5827 30.6381 88.8876 30.8972 88.3099 31.4155C87.7322 31.9201 87.3885 32.609 87.2782 33.4819H93.5711ZM102.777 40.3152C101.884 40.3152 101.079 40.1583 100.363 39.8446C99.6616 39.5173 99.1045 39.0808 98.6918 38.5352C98.2792 37.976 98.0594 37.3555 98.0316 36.6735H100.466C100.507 37.1509 100.734 37.5532 101.147 37.8805C101.574 38.1943 102.103 38.3511 102.736 38.3511C103.396 38.3511 103.905 38.2283 104.263 37.9828C104.634 37.7237 104.82 37.3964 104.82 37.0008C104.82 36.578 104.613 36.2643 104.201 36.0597C103.802 35.8551 103.163 35.6301 102.282 35.3845C101.43 35.1526 100.734 34.9276 100.198 34.7094C99.6616 34.4912 99.1942 34.157 98.795 33.7069C98.4101 33.2568 98.2173 32.6635 98.2173 31.927C98.2173 31.3268 98.3967 30.7813 98.7537 30.2903C99.1116 29.7856 99.6203 29.3901 100.281 29.1036C100.955 28.8172 101.725 28.674 102.591 28.674C103.885 28.674 104.923 29.0013 105.707 29.656C106.505 30.2971 106.931 31.1768 106.986 32.2952H104.634C104.593 31.7906 104.386 31.3882 104.015 31.0882C103.644 30.7881 103.142 30.6381 102.509 30.6381C101.89 30.6381 101.415 30.754 101.085 30.9859C100.755 31.2178 100.59 31.5246 100.59 31.9065C100.59 32.2066 100.7 32.4589 100.92 32.6635C101.141 32.8681 101.409 33.0318 101.725 33.1545C102.041 33.2637 102.509 33.4069 103.128 33.5842C103.953 33.8024 104.628 34.0274 105.15 34.2593C105.686 34.4775 106.147 34.8048 106.532 35.2413C106.918 35.6778 107.117 36.2574 107.13 36.9803C107.13 37.6214 106.952 38.1943 106.594 38.6989C106.237 39.2035 105.727 39.5991 105.067 39.8855C104.421 40.172 103.658 40.3152 102.777 40.3152ZM112.726 30.7608V37.0008C112.726 37.4236 112.822 37.7305 113.015 37.9215C113.221 38.0988 113.565 38.1874 114.046 38.1874H115.49V40.131H113.634C112.574 40.131 111.763 39.8855 111.199 39.3945C110.635 38.9035 110.353 38.1056 110.353 37.0008V30.7608H109.012V28.8581H110.353V26.0552H112.726V28.8581H115.49V30.7608H112.726Z" fill="#374151"/>
</svg>
