<svg width="51" height="51" viewBox="0 0 51 51" fill="none" xmlns="http://www.w3.org/2000/svg">
<g id="go-back">
<g id="Group 24515" filter="url(#filter0_d_1166_5770)">
<circle id="Ellipse 10" cx="21.5" cy="21.5" r="21.5" fill="white"/>
<path id="Vector" d="M10.5023 19.8573C9.83258 20.5843 9.83258 21.7651 10.5023 22.4921L19.0742 31.7983C19.7438 32.5254 20.8314 32.5254 21.5011 31.7983C22.1708 31.0713 22.1708 29.8905 21.5011 29.1635L15.849 23.033H32.2856C33.2339 23.033 34 22.2013 34 21.1718C34 20.1423 33.2339 19.3106 32.2856 19.3106H15.8543L21.4957 13.1801C22.1654 12.4531 22.1654 11.2723 21.4957 10.5453C20.8261 9.81824 19.7385 9.81824 19.0688 10.5453L10.4969 19.8515L10.5023 19.8573Z" fill="#4B5563"/>
</g>
</g>
<defs>
<filter id="filter0_d_1166_5770" x="0" y="0" width="51" height="51" filterUnits="userSpaceOnUse" color-interpolation-filters="sRGB">
<feFlood flood-opacity="0" result="BackgroundImageFix"/>
<feColorMatrix in="SourceAlpha" type="matrix" values="0 0 0 0 0 0 0 0 0 0 0 0 0 0 0 0 0 0 127 0" result="hardAlpha"/>
<feOffset dx="4" dy="4"/>
<feGaussianBlur stdDeviation="2"/>
<feComposite in2="hardAlpha" operator="out"/>
<feColorMatrix type="matrix" values="0 0 0 0 0.296615 0 0 0 0 0.296615 0 0 0 0 0.296615 0 0 0 0.05 0"/>
<feBlend mode="normal" in2="BackgroundImageFix" result="effect1_dropShadow_1166_5770"/>
<feBlend mode="normal" in="SourceGraphic" in2="effect1_dropShadow_1166_5770" result="shape"/>
</filter>
</defs>
</svg>
