<svg width="600" height="400" viewBox="0 0 600 400" fill="none" xmlns="http://www.w3.org/2000/svg">
<path d="M215.22 230.204C235.782 193.918 275.005 166.057 316.525 168.741C285.899 202.152 268.04 245.352 266.108 290.7C265.426 308.191 266.483 327.717 254.906 340.815C247.703 348.964 236.692 352.911 225.866 353.739C215.04 354.567 204.216 352.605 193.534 350.651L190.943 351.449C189.956 309.722 194.658 266.489 215.22 230.204Z" fill="#F0F0F0"/>
<path d="M316.587 169.615C285.883 184.443 259.703 209.206 243.631 239.407C240.156 245.937 237.198 252.863 235.908 260.187C234.617 267.515 235.518 274.49 238.013 281.449C240.294 287.811 243.361 294.054 244.061 300.861C244.798 308.037 242.166 314.746 237.428 320.071C231.632 326.586 223.848 330.623 216.098 334.306C207.494 338.395 198.493 342.505 192.399 350.136C191.66 351.061 190.273 349.858 191.01 348.934C201.613 335.657 219.762 333.161 232.348 322.466C238.221 317.475 242.629 310.679 242.351 302.716C242.108 295.752 238.95 289.312 236.585 282.89C234.102 276.147 232.864 269.367 233.755 262.178C234.665 254.824 237.36 247.766 240.653 241.176C248.079 226.315 258.243 212.67 269.885 200.876C283.266 187.318 298.86 176.157 315.993 167.875C317.054 167.362 317.641 169.106 316.587 169.615Z" fill="white"/>
<path d="M248.339 229.314C243.632 225.861 240.302 220.843 238.943 215.154C237.584 209.466 238.285 203.478 240.921 198.26C241.458 197.206 243.116 197.994 242.578 199.049C240.115 203.903 239.462 209.481 240.738 214.776C242.015 220.07 245.135 224.732 249.537 227.921C250.493 228.616 249.289 230.004 248.339 229.314Z" fill="white"/>
<path d="M236.434 278.375C248.228 276.647 258.94 270.522 266.433 261.222C267.174 260.3 268.562 261.503 267.821 262.424C260.006 272.087 248.846 278.438 236.568 280.21C235.397 280.378 235.27 278.543 236.434 278.375Z" fill="white"/>
<path d="M284.172 189.582C285.716 191.298 287.66 192.603 289.831 193.38C292.002 194.156 294.331 194.379 296.609 194.03C297.777 193.847 297.903 195.683 296.743 195.864C294.225 196.239 291.653 195.989 289.252 195.137C286.852 194.284 284.696 192.855 282.974 190.974C282.797 190.81 282.688 190.585 282.671 190.344C282.653 190.103 282.727 189.865 282.879 189.677C283.038 189.493 283.264 189.38 283.506 189.362C283.748 189.345 283.987 189.423 284.172 189.582Z" fill="white"/>
<path d="M399.138 283.208C398.412 283.343 397.687 283.478 396.954 283.627C387.205 285.492 377.622 288.149 368.302 291.572C367.577 291.825 366.846 292.092 366.13 292.366C343.763 300.851 323.16 313.429 305.37 329.459C298.297 335.844 291.718 342.76 285.69 350.146C277.367 360.348 269.151 372.074 258.274 378.725C257.147 379.432 255.978 380.068 254.772 380.63L192.114 354.558C192.001 354.427 191.882 354.31 191.768 354.179L189.219 353.253C189.504 352.85 189.807 352.438 190.091 352.036C190.255 351.801 190.433 351.573 190.597 351.338C190.711 351.184 190.826 351.03 190.919 350.884C190.957 350.833 190.995 350.781 191.027 350.744C191.121 350.598 191.224 350.473 191.311 350.341C193.002 348.036 194.711 345.739 196.44 343.449C196.446 343.435 196.446 343.435 196.466 343.426C209.68 326.016 224.46 309.558 241.26 295.875C241.766 295.463 242.277 295.037 242.811 294.637C250.418 288.512 258.511 283.02 267.009 278.217C271.671 275.602 276.462 273.225 281.364 271.096C294.04 265.62 307.495 262.177 321.237 260.895C348.632 258.343 376.535 264.609 397.546 281.873C398.083 282.315 398.607 282.751 399.138 283.208Z" fill="#F0F0F0"/>
<path d="M398.667 283.947C365.253 277.242 329.487 281.202 298.529 295.609C291.836 298.724 285.316 302.468 279.89 307.536C274.462 312.607 270.996 318.72 268.811 325.784C266.813 332.241 265.516 339.078 261.988 344.936C258.27 351.111 252.142 354.878 245.164 356.268C236.626 357.969 227.987 356.491 219.59 354.751C210.266 352.819 200.611 350.665 191.166 353.077C190.021 353.369 189.636 351.571 190.779 351.279C207.213 347.082 223.202 356.05 239.67 355.112C247.354 354.674 254.953 351.911 259.511 345.384C263.496 339.677 264.84 332.628 266.806 326.072C268.87 319.188 271.951 313.027 276.977 307.825C282.118 302.503 288.505 298.496 295.089 295.223C309.938 287.842 326.242 283.086 342.617 280.701C361.438 277.957 380.588 278.464 399.238 282.198C400.392 282.43 399.814 284.177 398.667 283.947Z" fill="white"/>
<path d="M308.346 290.393C306.659 284.794 307.012 278.775 309.342 273.413C311.671 268.05 315.824 263.692 321.06 261.118C322.121 260.601 322.972 262.231 321.91 262.749C317.029 265.137 313.161 269.196 311.002 274.195C308.844 279.193 308.537 284.8 310.138 290.005C310.485 291.137 308.69 291.518 308.346 290.393Z" fill="white"/>
<path d="M269.394 322.376C279.849 328.119 292.078 329.698 303.642 326.798C304.788 326.51 305.173 328.308 304.029 328.596C291.99 331.591 279.267 329.922 268.4 323.922C267.365 323.349 268.365 321.806 269.394 322.376Z" fill="white"/>
<path d="M360.803 280.311C361.005 282.614 361.775 284.831 363.042 286.762C364.309 288.693 366.035 290.278 368.064 291.375C369.106 291.934 368.105 293.476 367.07 292.921C364.834 291.698 362.93 289.946 361.525 287.815C360.121 285.685 359.257 283.242 359.011 280.7C358.967 280.462 359.016 280.217 359.146 280.014C359.277 279.811 359.48 279.665 359.713 279.607C359.951 279.556 360.199 279.602 360.403 279.734C360.607 279.866 360.751 280.074 360.803 280.311Z" fill="white"/>
<path d="M279.779 326.221C271.004 283.658 260.035 269.467 260.035 269.467L255.844 266.207L250.805 262.281L250.829 261.776L249.634 261.368L249.353 261.15L248.893 260.795L248.819 260.875L248.663 261.037L225.86 253.262L196.93 243.404L183.533 225.936C181.351 223.091 178.543 220.792 175.327 219.218C172.111 217.645 168.575 216.84 164.997 216.866L122.213 217.184C116.429 217.227 110.869 219.439 106.628 223.386L78.5065 249.552L34.6883 270.546L34.6143 270.472L34.1542 270.801L27.3839 274.049L27.6633 275.508L23.4729 278.541C23.4729 278.541 12.504 291.745 3.72885 331.349C1.49655 341.427 0.397729 363.044 0.00111457 389.681C-0.0188074 391.029 0.228514 392.367 0.728692 393.618C1.22887 394.869 1.97193 396.007 2.91466 396.967C3.8574 397.927 4.981 398.69 6.22013 399.211C7.45927 399.731 8.78921 400 10.1326 400H244.174L273.385 400C274.728 399.999 276.057 399.731 277.295 399.211C278.534 398.691 279.657 397.929 280.599 396.97C281.542 396.012 282.285 394.874 282.786 393.625C283.287 392.375 283.535 391.039 283.517 389.692C283.13 360.706 282.031 337.149 279.779 326.221Z" fill="#3F3D56"/>
<path d="M309.807 37.1184C300.702 37.1184 291.969 40.747 285.53 47.2059C279.092 53.6649 275.475 62.4251 275.475 71.5594C275.475 80.6937 279.092 89.4539 285.53 95.9129C291.969 102.372 300.702 106 309.807 106H565.667C574.773 106 583.505 102.372 589.944 95.9129C596.383 89.4539 600 80.6937 600 71.5594C600 62.4251 596.383 53.6649 589.944 47.2059C583.505 40.747 574.773 37.1184 565.667 37.1184H309.807Z" fill="#E5E5E5"/>
<path d="M309.807 44.0887C302.544 44.0887 295.579 46.983 290.444 52.1348C285.308 57.2865 282.423 64.2738 282.423 71.5595C282.423 78.8453 285.308 85.8325 290.444 90.9843C295.579 96.1361 302.544 99.0303 309.807 99.0303H565.667C572.93 99.0303 579.895 96.1361 585.031 90.9843C590.166 85.8325 593.052 78.8453 593.052 71.5595C593.052 64.2738 590.166 57.2865 585.031 52.1348C579.895 46.983 572.93 44.0887 565.667 44.0887H309.807Z" fill="white"/>
<path d="M150.324 200.743C181.281 200.743 206.375 175.569 206.375 144.515C206.375 113.461 181.281 88.2869 150.324 88.2869C119.368 88.2869 94.2734 113.461 94.2734 144.515C94.2734 175.569 119.368 200.743 150.324 200.743Z" fill="#9E616A"/>
<path d="M135.985 197.99C135.746 197.461 135.507 196.93 135.269 196.397C135.361 196.4 135.451 196.414 135.543 196.416L135.985 197.99Z" fill="#2F2E41"/>
<path d="M92.7141 90.8437C95.5491 88.5751 98.8624 86.4878 102.487 86.6051C106.111 86.7223 109.787 90.0062 109.036 93.5652C115.693 81.7404 126.29 72.6457 138.966 67.8776C151.642 63.1095 165.587 62.9726 178.353 67.491C187.362 70.6792 196.196 77.0576 198.265 86.4128C198.796 88.8143 198.91 91.4475 200.405 93.3976C202.29 95.8563 205.896 96.4125 208.865 95.5476C208.894 95.5389 208.924 95.5302 208.954 95.5213C209.455 95.3495 209.997 95.3326 210.508 95.4728C211.019 95.613 211.477 95.9039 211.821 96.3078C212.166 96.7118 212.382 97.2102 212.441 97.7385C212.5 98.2669 212.4 98.8009 212.154 99.2716L209.605 104.04C212.818 104.759 216.156 104.688 219.336 103.833C219.864 103.694 220.422 103.722 220.934 103.914C221.445 104.106 221.885 104.452 222.193 104.904C222.501 105.357 222.662 105.893 222.653 106.441C222.645 106.989 222.468 107.521 222.146 107.963C213.741 119.539 199.7 127.014 185.371 126.926C175.187 126.864 164.897 123.343 154.986 125.692C151.152 126.601 147.569 128.36 144.5 130.839C141.432 133.318 138.955 136.455 137.253 140.019C135.55 143.583 134.665 147.485 134.662 151.437C134.659 155.39 135.537 159.293 137.234 162.86C134.189 159.519 128.303 160.31 125.188 163.586C122.074 166.861 121.268 171.751 121.581 176.267C122.061 183.173 124.759 189.682 127.603 196.016C103.759 195.263 81.2073 178.484 73.6163 155.791C65.9934 133.002 73.9824 105.834 92.7141 90.8437Z" fill="#2F2E41"/>
<path opacity="0.2" d="M55.1689 313.371L70.89 399.176L80.323 400L55.1689 313.371Z" fill="black"/>
<path opacity="0.2" d="M228.339 306.9L212.618 399.114L203.185 400L228.339 306.9Z" fill="black"/>
<path d="M106.124 61.9664C103.109 63.2291 99.964 61.8453 98.6449 58.6764C97.3056 55.459 98.5565 52.1929 101.619 50.9101C104.682 49.6271 107.771 51.0142 109.132 54.2835C110.472 57.5037 109.235 60.663 106.124 61.9664ZM100.349 44.5772L97.9527 45.5812C97.354 45.829 96.6843 45.8424 96.0763 45.6186C95.4682 45.3949 94.9659 44.9503 94.6689 44.373L94.5504 44.1403C91.9716 39.4748 91.6763 33.8046 93.6774 27.296C95.5312 21.4574 96.3012 17.3512 94.7527 13.6311C92.9624 9.33008 89.1394 7.98277 84.2642 9.9345C82.3734 10.7265 81.7717 10.7139 80.2837 12.1947C79.9601 12.5207 79.5743 12.778 79.1493 12.9512C78.7244 13.1244 78.269 13.21 77.8104 13.2029C77.367 13.1977 76.9293 13.1029 76.5232 12.9243C76.1171 12.7457 75.7511 12.4869 75.4469 12.1633C74.8608 11.5397 74.5324 10.7163 74.5281 9.85922C74.5238 9.00218 74.8439 8.17543 75.4236 7.54593C77.9247 4.91955 80.9413 2.84174 84.2831 1.44363C94.7578 -2.94404 100.031 3.53372 102.444 9.33071C104.804 15.0008 103.476 20.2617 101.343 27.0751C99.5554 32.7367 99.6596 36.9318 101.69 41.103C101.837 41.4184 101.918 41.7602 101.93 42.108C101.942 42.4557 101.883 42.8023 101.758 43.1268C101.633 43.4512 101.443 43.747 101.201 43.9962C100.959 44.2455 100.669 44.4431 100.349 44.5772Z" fill="#FF7C04"/>
<path d="M366.323 87.9855H315.417C315.255 87.9866 315.095 87.9556 314.945 87.8943C314.795 87.8329 314.659 87.7425 314.544 87.6282C314.429 87.5139 314.338 87.3779 314.276 87.2281C314.214 87.0783 314.182 86.9177 314.182 86.7554C314.182 86.5932 314.214 86.4326 314.276 86.2828C314.338 86.133 314.429 85.997 314.544 85.8827C314.659 85.7684 314.795 85.678 314.945 85.6166C315.095 85.5553 315.255 85.5243 315.417 85.5254H366.323C366.647 85.5276 366.957 85.6582 367.185 85.8886C367.413 86.1191 367.541 86.4307 367.541 86.7554C367.541 87.0802 367.413 87.3918 367.185 87.6223C366.957 87.8527 366.647 87.9833 366.323 87.9855Z" fill="#FF7C04"/>
<path d="M430.901 88.3955H379.995C379.833 88.3966 379.673 88.3656 379.523 88.3043C379.373 88.243 379.237 88.1526 379.122 88.0382C379.008 87.9239 378.917 87.7879 378.854 87.6381C378.792 87.4884 378.76 87.3277 378.76 87.1655C378.76 87.0033 378.792 86.8426 378.854 86.6928C378.917 86.543 379.008 86.4071 379.122 86.2927C379.237 86.1784 379.373 86.088 379.523 86.0267C379.673 85.9654 379.833 85.9343 379.995 85.9355H430.901C431.063 85.9343 431.223 85.9654 431.373 86.0267C431.523 86.088 431.659 86.1784 431.774 86.2927C431.889 86.4071 431.98 86.543 432.042 86.6928C432.104 86.8426 432.136 87.0033 432.136 87.1655C432.136 87.3277 432.104 87.4884 432.042 87.6381C431.98 87.7879 431.889 87.9239 431.774 88.0382C431.659 88.1526 431.523 88.243 431.373 88.3043C431.223 88.3656 431.063 88.3966 430.901 88.3955Z" fill="#FF7C04"/>
<path d="M495.479 88.8053H444.573C444.249 88.8031 443.939 88.6725 443.711 88.4421C443.483 88.2117 443.355 87.9001 443.355 87.5753C443.355 87.2505 443.483 86.9389 443.711 86.7084C443.939 86.478 444.249 86.3475 444.573 86.3452H495.479C495.641 86.3441 495.802 86.3751 495.951 86.4365C496.101 86.4978 496.237 86.5882 496.352 86.7025C496.467 86.8169 496.558 86.9528 496.62 87.1026C496.682 87.2524 496.714 87.413 496.714 87.5753C496.714 87.7375 496.682 87.8982 496.62 88.0479C496.558 88.1977 496.467 88.3337 496.352 88.448C496.237 88.5624 496.101 88.6528 495.951 88.7141C495.802 88.7754 495.641 88.8064 495.479 88.8053Z" fill="#FF7C04"/>
<path d="M560.058 89.2156H509.151C508.828 89.2134 508.518 89.0828 508.29 88.8523C508.062 88.6219 507.934 88.3103 507.934 87.9855C507.934 87.6607 508.062 87.3491 508.29 87.1187C508.518 86.8883 508.828 86.7577 509.151 86.7555H560.058C560.382 86.7577 560.692 86.8883 560.92 87.1187C561.148 87.3491 561.276 87.6607 561.276 87.9855C561.276 88.3103 561.148 88.6219 560.92 88.8523C560.692 89.0828 560.382 89.2134 560.058 89.2156Z" fill="#FF7C04"/>
<path d="M340.758 76.6651C345.984 76.6651 350.22 72.4157 350.22 67.1739C350.22 61.932 345.984 57.6826 340.758 57.6826C335.533 57.6826 331.297 61.932 331.297 67.1739C331.297 72.4157 335.533 76.6651 340.758 76.6651Z" fill="#FF7C04"/>
<path d="M405.726 76.6651C410.951 76.6651 415.187 72.4157 415.187 67.1739C415.187 61.932 410.951 57.6826 405.726 57.6826C400.501 57.6826 396.265 61.932 396.265 67.1739C396.265 72.4157 400.501 76.6651 405.726 76.6651Z" fill="#FF7C04"/>
<path d="M470.695 76.6651C475.92 76.6651 480.156 72.4157 480.156 67.1739C480.156 61.932 475.92 57.6826 470.695 57.6826C465.469 57.6826 461.233 61.932 461.233 67.1739C461.233 72.4157 465.469 76.6651 470.695 76.6651Z" fill="#FF7C04"/>
<path d="M535.663 76.6651C540.888 76.6651 545.124 72.4157 545.124 67.1739C545.124 61.932 540.888 57.6826 535.663 57.6826C530.437 57.6826 526.201 61.932 526.201 67.1739C526.201 72.4157 530.437 76.6651 535.663 76.6651Z" fill="#FF7C04"/>
</svg>
