<svg width="368" height="340" viewBox="0 0 368 340" fill="none" xmlns="http://www.w3.org/2000/svg">
<path d="M356.106 125.315H11.5789C8.50904 125.312 5.56596 124.345 3.39527 122.625C1.22459 120.906 0.00354465 118.575 0 116.143V9.17182C0.00354465 6.74016 1.22459 4.4089 3.39527 2.68946C5.56596 0.970019 8.50904 0.00280778 11.5789 0H356.106C359.176 0.00280778 362.119 0.970019 364.289 2.68946C366.46 4.4089 367.681 6.74016 367.685 9.17182V116.143C367.681 118.575 366.46 120.906 364.289 122.625C362.119 124.345 359.176 125.312 356.106 125.315Z" fill="#F2F2F2"/>
<path d="M275.754 119.465H66.267C50.6564 119.451 35.6901 114.533 24.6516 105.789C13.6132 97.0453 7.40409 85.1903 7.38647 72.8248V52.495C7.40407 40.1294 13.6132 28.2743 24.6516 19.5305C35.69 10.7867 50.6563 5.86827 66.267 5.85425H301.419C317.03 5.86827 331.996 10.7867 343.035 19.5305C354.073 28.2743 360.282 40.1294 360.3 52.495C360.274 70.2504 351.359 87.2729 335.509 99.8279C319.659 112.383 298.169 119.445 275.754 119.465Z" fill="white"/>
<path d="M221.715 36.4769H83.2416C82.4496 36.4769 81.69 36.2277 81.13 35.7841C80.57 35.3405 80.2554 34.7389 80.2554 34.1115C80.2554 33.4842 80.57 32.8825 81.13 32.4389C81.69 31.9953 82.4496 31.7461 83.2416 31.7461H221.715C222.507 31.7461 223.267 31.9953 223.827 32.4389C224.387 32.8825 224.701 33.4842 224.701 34.1115C224.701 34.7389 224.387 35.3405 223.827 35.7841C223.267 36.2277 222.507 36.4769 221.715 36.4769Z" fill="#E6E6E6"/>
<path d="M291.813 61.7142H83.2416C82.4496 61.7142 81.69 61.465 81.13 61.0214C80.57 60.5778 80.2554 59.9762 80.2554 59.3488C80.2554 58.7215 80.57 58.1198 81.13 57.6762C81.69 57.2326 82.4496 56.9834 83.2416 56.9834H291.813C292.605 56.9834 293.364 57.2326 293.924 57.6762C294.484 58.1198 294.799 58.7215 294.799 59.3488C294.799 59.9762 294.484 60.5778 293.924 61.0214C293.364 61.465 292.605 61.7142 291.813 61.7142Z" fill="#E6E6E6"/>
<path d="M291.813 86.9515H83.2416C82.4496 86.9515 81.69 86.7023 81.13 86.2587C80.57 85.8151 80.2554 85.2135 80.2554 84.5861C80.2554 83.9588 80.57 83.3571 81.13 82.9135C81.69 82.4699 82.4496 82.2207 83.2416 82.2207H291.813C292.605 82.2207 293.364 82.4699 293.924 82.9135C294.484 83.3571 294.799 83.9588 294.799 84.5861C294.799 85.2135 294.484 85.8151 293.924 86.2587C293.364 86.7023 292.605 86.9515 291.813 86.9515Z" fill="#E6E6E6"/>
<path d="M291.813 86.9515H83.2416C82.4496 86.9515 81.69 86.7023 81.13 86.2587C80.57 85.8151 80.2554 85.2135 80.2554 84.5861C80.2554 83.9588 80.57 83.3571 81.13 82.9135C81.69 82.4699 82.4496 82.2207 83.2416 82.2207H291.813C292.605 82.2207 293.364 82.4699 293.924 82.9135C294.484 83.3571 294.799 83.9588 294.799 84.5861C294.799 85.2135 294.484 85.8151 293.924 86.2587C293.364 86.7023 292.605 86.9515 291.813 86.9515Z" fill="#E6E6E6"/>
<path d="M207.102 64.6109C207.136 65.3234 207.366 66.0214 207.776 66.6559C208.187 67.2904 208.768 67.8458 209.479 68.2831C210.19 68.7204 211.013 69.0289 211.891 69.1868C212.769 69.3448 213.68 69.3484 214.559 69.1974L225.947 83.996L230.794 75.8491L219.237 63.045C218.819 61.8912 217.881 60.8991 216.601 60.2565C215.32 59.614 213.787 59.3657 212.292 59.5587C210.796 59.7517 209.442 60.3726 208.485 61.3037C207.529 62.2349 207.037 63.4116 207.102 64.6109Z" fill="#FFB6B6"/>
<path d="M292.564 107.023L253.318 90.1602L240.939 80.9605C240.939 80.9605 235.557 79.8192 237.538 78.4331C239.519 77.0471 233.874 75.7104 233.874 75.7104L227.229 70.7717L217.786 76.0642L220.519 79.4199C220.519 79.4199 220.331 84.975 224.173 83.9063C228.015 82.8376 227.055 87.4448 227.055 87.4448L249.986 115.602L292.564 107.023Z" fill="#3F3D56"/>
<path d="M171.297 96.1539C189.367 96.1539 204.016 81.517 204.016 63.4616C204.016 45.4061 189.367 30.7693 171.297 30.7693C153.226 30.7693 138.577 45.4061 138.577 63.4616C138.577 81.517 153.226 96.1539 171.297 96.1539Z" fill="#FF7C04"/>
<path d="M292.685 328.194H284.714L280.921 303.842H292.685V328.194Z" fill="#FFB6B6"/>
<path d="M296.892 339.134H291.176L290.156 334.859L287.542 339.134H272.382C271.656 339.134 270.948 338.95 270.363 338.609C269.777 338.267 269.345 337.787 269.129 337.238C268.912 336.688 268.923 336.098 269.16 335.554C269.397 335.01 269.848 334.54 270.446 334.213L282.552 327.59V323.268L295.286 323.87L296.892 339.134Z" fill="#2F2E41"/>
<path d="M228.936 328.194H220.965L217.172 303.842H228.936V328.194Z" fill="#FFB6B6"/>
<path d="M233.143 339.134H227.427L226.407 334.859L223.794 339.134H208.634C207.907 339.134 207.199 338.95 206.614 338.609C206.029 338.267 205.596 337.787 205.38 337.238C205.164 336.688 205.175 336.098 205.412 335.554C205.649 335.01 206.099 334.54 206.697 334.213L218.804 327.59V323.268L231.538 323.87L233.143 339.134Z" fill="#2F2E41"/>
<path d="M284.228 144.017H243.998V180.296H284.228V144.017Z" fill="#FFB6B6"/>
<path d="M244.926 161.912L238.118 168.285L226.358 187.896L196.727 243.741L190.461 255.551L195.522 276.429C195.522 276.429 196.341 291.139 196.341 293.546C196.341 298.449 201.517 301.165 201.517 301.165L205.315 316.834L242.141 315.608C242.141 315.608 240.856 298.337 233.143 293.981C225.43 289.624 221.884 266.92 221.884 266.92L217.693 256.846L258.542 218.49L258.806 231.898L258.933 238.387C258.933 238.387 252.951 280.595 259.924 288.787C266.898 296.978 260.067 296.014 260.067 296.014L260.399 312.911L304.033 313.157L294.406 264.509C294.406 264.509 289.519 261.452 292.134 258.379C294.749 255.306 289.599 251.542 289.599 251.542L291.909 213.565C291.909 213.565 289.351 207.005 292.36 206.152C295.368 205.3 292.755 199.659 292.755 199.659L293.202 192.308L284.227 169.511L244.926 161.912Z" fill="#2F2E41"/>
<path d="M284.846 144.017L289.179 133.722L292.273 130.29L293.511 120.485C293.511 94.011 286.056 98.4195 286.056 98.4195L281.752 89.1084L261.946 88.6182L249.259 98.1782L238.737 101.12L234.617 118.078L242.141 136.173L243.998 145.978C240.456 151.158 240.755 148.708 243.688 152.597L278.657 160.196C291.036 163.628 291.036 154.803 288.553 152.597C286.071 150.391 284.846 144.017 284.846 144.017Z" fill="#3F3D56"/>
<path d="M269.291 85.3272C279.431 85.3272 287.651 78.8158 287.651 70.7836C287.651 62.7514 279.431 56.24 269.291 56.24C259.151 56.24 250.931 62.7514 250.931 70.7836C250.931 78.8158 259.151 85.3272 269.291 85.3272Z" fill="#FFB6B6"/>
<path d="M293.802 90.1968C293.975 90.428 294.08 90.6872 294.109 90.9549C294.138 91.2227 294.09 91.4922 293.97 91.7434C293.849 91.9945 293.658 92.2209 293.412 92.4055C293.165 92.5902 292.869 92.7284 292.546 92.8099C290.082 93.457 288.566 95.3445 286.796 96.8545C285.032 98.3596 282.191 99.6098 279.938 98.5851C277.692 97.5654 277.537 94.9621 275.655 93.5502C273.823 92.1775 270.778 92.3441 268.625 93.3884L268.56 93.4198C268.188 93.6118 267.754 93.7132 267.31 93.7116C266.866 93.71 266.433 93.6055 266.063 93.4108C265.693 93.2161 265.404 92.9399 265.231 92.6163C265.057 92.2927 265.007 91.936 265.087 91.5901C265.841 88.411 266.596 85.2321 267.35 82.0536C265.369 85.8337 262.493 89.2785 258.877 92.202C257.881 93.1125 256.618 93.816 255.2 94.2513C253.913 94.5748 252.663 93.5208 251.412 93.712C254.519 91.5597 264.967 77.7638 263.098 68.5421C260.9 68.7382 258.703 68.9343 256.506 69.1304C256.268 68.3067 255.76 67.5474 255.033 66.9292C255.122 67.7308 254.993 68.5381 254.655 69.2971C253.739 69.3804 252.817 69.4589 251.901 69.5422C250.626 69.655 249.24 69.753 248.144 69.2236C246.319 68.3411 246.263 66.2526 246.783 64.6053C248.305 59.8155 252.922 55.8101 258.573 53.7118C264.224 51.6184 265.895 56.2807 271.849 54.7904C283.609 51.8488 292.62 56.8789 295.795 66.2134C298.463 74.0428 296.525 82.3527 293.802 90.1968Z" fill="#2F2E41"/>
<path d="M344.633 339.45H322.151L322.054 339.311C321.767 338.898 321.489 338.46 321.23 338.011C318.914 334.084 317.935 329.592 317.071 325.629L316.421 322.642C316.342 322.281 316.402 321.908 316.591 321.574C316.781 321.239 317.093 320.956 317.487 320.762C317.88 320.569 318.338 320.472 318.801 320.486C319.264 320.499 319.712 320.622 320.086 320.838C323.503 322.807 326.921 324.775 330.34 326.74C331.635 327.487 333.113 328.35 334.529 329.283C334.666 328.758 334.809 328.231 334.952 327.711C335.05 327.352 335.282 327.024 335.617 326.77C335.952 326.516 336.375 326.347 336.832 326.284C337.288 326.222 337.759 326.269 338.182 326.419C338.605 326.569 338.962 326.816 339.207 327.128L341.837 330.476C343.756 332.92 345.449 335.329 345.104 337.927C345.106 337.959 345.103 337.991 345.095 338.022C345.026 338.449 344.898 338.868 344.713 339.273L344.633 339.45Z" fill="#F0F0F0"/>
<path d="M367.197 339.835L153.561 340C153.348 339.999 153.144 339.931 152.993 339.812C152.843 339.692 152.758 339.53 152.758 339.361C152.758 339.192 152.843 339.03 152.993 338.91C153.144 338.791 153.348 338.723 153.561 338.722L367.197 338.557C367.411 338.558 367.615 338.626 367.765 338.745C367.916 338.865 368 339.027 368 339.196C368 339.365 367.916 339.527 367.765 339.647C367.615 339.766 367.411 339.834 367.197 339.835Z" fill="#CACACA"/>
<path d="M173.23 101.64L149.731 85.9204C148.927 85.3818 148.427 84.6129 148.338 83.7823C148.25 82.9517 148.581 82.1272 149.259 81.4898L153.584 77.4329C154.264 76.7967 155.235 76.4 156.283 76.33C157.332 76.26 158.373 76.5223 159.177 77.0594L182.677 92.7789C183.48 93.3174 183.981 94.0863 184.069 94.9169C184.157 95.7476 183.826 96.572 183.148 97.2095L178.823 101.266C178.143 101.903 177.173 102.299 176.124 102.369C175.075 102.439 174.035 102.177 173.23 101.64Z" fill="#3F3D56"/>
<path d="M150.963 81.8168C150.598 82.1603 150.419 82.6046 150.467 83.0522C150.515 83.4998 150.785 83.9142 151.217 84.2044L174.716 99.9239C175.15 100.213 175.711 100.355 176.276 100.317C176.841 100.279 177.364 100.065 177.731 99.7226L182.056 95.6658C182.421 95.3222 182.599 94.878 182.552 94.4304C182.504 93.9828 182.234 93.5684 181.802 93.2782L158.302 77.5587C157.869 77.2693 157.308 77.1279 156.743 77.1657C156.178 77.2034 155.655 77.4171 155.288 77.76L150.963 81.8168Z" fill="white"/>
<path d="M164.759 87.9276C164.677 88.018 164.57 88.0921 164.446 88.144C164.322 88.1959 164.185 88.2243 164.045 88.2268L160.352 88.294C160.234 88.2961 160.116 88.2798 160.005 88.2458C159.895 88.2118 159.793 88.1609 159.708 88.096C159.622 88.0311 159.553 87.9535 159.505 87.8675C159.457 87.7815 159.431 87.6889 159.428 87.5949C159.426 87.501 159.446 87.4075 159.489 87.3199C159.532 87.2322 159.596 87.1522 159.678 87.0842C159.76 87.0162 159.858 86.9617 159.967 86.9238C160.075 86.8858 160.192 86.8652 160.311 86.863L162.726 86.819L160.348 81.8471C160.263 81.6697 160.271 81.4731 160.37 81.3004C160.468 81.1277 160.649 80.993 160.873 80.9258C161.097 80.8587 161.345 80.8646 161.563 80.9422C161.782 81.0198 161.952 81.1628 162.037 81.3398L164.869 87.2577C164.92 87.3648 164.938 87.48 164.921 87.5937C164.905 87.7074 164.854 87.8163 164.773 87.9112L164.759 87.9276Z" fill="#FF7C04"/>
<path d="M165.233 89.1774C166.123 89.281 166.974 89.538 167.726 89.9303C168.477 90.3226 169.111 90.8407 169.583 91.4481C170.054 92.0554 170.352 92.7373 170.454 93.4456C170.557 94.1539 170.463 94.8715 170.178 95.5478L187.511 106.124L176.76 109.055L161.948 98.562C160.546 98.1072 159.402 97.2607 158.735 96.1829C158.068 95.1051 157.923 93.8709 158.328 92.7141C158.733 91.5573 159.659 90.5584 160.932 89.9065C162.204 89.2547 163.735 88.9952 165.233 89.1774Z" fill="#FFB6B6"/>
<path d="M255.474 94.4067L211.095 116.02C211.095 116.02 193.202 110.776 196.699 108.349C200.196 105.921 189.063 104.28 189.063 104.28L176.766 97.7259L169.629 104.295C169.629 104.295 170.93 114.966 173.142 113.118C175.354 111.271 178.661 116.318 178.661 116.318C178.661 116.318 179.639 121.954 185.937 120.535C192.235 119.117 209.134 133.983 209.134 133.983L263.751 117.848L255.474 94.4067Z" fill="#3F3D56"/>
<path d="M169.266 73.7959C168.751 73.7959 168.244 73.701 167.784 73.5187C167.324 73.3364 166.923 73.0717 166.615 72.7456L158.487 64.1611C158.226 63.8853 158.036 63.5715 157.928 63.2376C157.82 62.9036 157.796 62.5561 157.858 62.2148C157.919 61.8736 158.065 61.5453 158.287 61.2486C158.508 60.952 158.802 60.6929 159.15 60.4861C159.853 60.0684 160.737 59.889 161.607 59.9875C162.038 60.0363 162.452 60.1518 162.827 60.3274C163.201 60.5031 163.528 60.7354 163.789 61.0112L169.107 66.6269L182.764 50.3997C183.252 49.8204 184.01 49.4182 184.872 49.2817C185.734 49.1452 186.629 49.2854 187.36 49.6716C188.092 50.0578 188.599 50.6583 188.772 51.341C188.944 52.0238 188.767 52.7327 188.279 53.312L172.024 72.6268C171.729 72.9762 171.334 73.2645 170.87 73.4678C170.406 73.6711 169.888 73.7833 169.358 73.795C169.327 73.7955 169.297 73.7959 169.266 73.7959Z" fill="white"/>
</svg>
