<svg width="500" height="500" viewBox="0 0 500 500" fill="none" xmlns="http://www.w3.org/2000/svg">
<path d="M309.915 103.082H283.31V335.844C283.31 339.496 282.609 343.112 281.247 346.486C279.886 349.86 277.889 352.926 275.373 355.508C272.857 358.091 269.869 360.139 266.582 361.536C263.294 362.934 259.77 363.653 256.211 363.653H52.8096V363.919C52.8096 367.571 53.5105 371.188 54.8723 374.562C56.2342 377.936 58.2303 381.001 60.7467 383.584C63.2631 386.166 66.2504 388.214 69.5383 389.612C72.8261 391.009 76.3499 391.729 79.9086 391.729H309.915C313.473 391.729 316.997 391.009 320.285 389.612C323.573 388.214 326.56 386.166 329.077 383.584C331.593 381.001 333.589 377.936 334.951 374.562C336.313 371.188 337.014 367.571 337.014 363.919V130.891C337.014 123.516 334.159 116.442 329.077 111.227C323.994 106.012 317.102 103.082 309.915 103.082Z" fill="#F2F2F2"/>
<path d="M445.032 481.977C445.503 481.999 445.969 481.872 446.367 481.613C446.766 481.354 447.077 480.976 447.259 480.53C447.441 480.083 447.484 479.59 447.384 479.118C447.284 478.645 447.044 478.215 446.698 477.887L446.541 477.244C446.561 477.192 446.582 477.141 446.603 477.09C447.078 475.939 447.873 474.959 448.889 474.271C449.904 473.583 451.096 473.219 452.313 473.223C453.53 473.228 454.718 473.602 455.729 474.297C456.74 474.993 457.528 475.979 457.994 477.133C459.857 481.738 462.229 486.35 462.813 491.218C463.07 493.37 462.961 495.552 462.492 497.666C466.868 487.871 469.14 477.225 469.154 466.449C469.155 463.745 469.009 461.044 468.716 458.357C468.474 456.154 468.138 453.966 467.708 451.795C465.363 440.012 460.327 428.969 453.015 419.571C449.477 417.589 446.614 414.542 444.815 410.84C444.163 409.509 443.702 408.088 443.447 406.622C443.846 406.676 444.953 400.437 444.651 400.054C445.208 399.187 446.204 398.757 446.811 397.911C449.833 393.707 453.996 394.441 456.17 400.155C460.813 402.559 460.858 406.548 458.009 410.383C456.196 412.824 455.947 416.126 454.357 418.738C454.521 418.953 454.691 419.161 454.855 419.376C457.845 423.323 460.452 427.561 462.637 432.029C462.106 427.023 462.74 421.959 464.488 417.254C466.259 412.869 469.58 409.175 472.504 405.384C473.277 404.366 474.327 403.606 475.521 403.2C476.716 402.794 478 402.76 479.213 403.103C480.426 403.446 481.513 404.151 482.335 405.127C483.158 406.104 483.68 407.309 483.836 408.59C483.842 408.646 483.848 408.702 483.854 408.758C483.419 409.009 482.994 409.276 482.578 409.559C482.056 409.917 481.651 410.429 481.417 411.027C481.182 411.626 481.13 412.283 481.266 412.912C481.402 413.542 481.72 414.115 482.178 414.556C482.637 414.997 483.215 415.285 483.836 415.383L483.899 415.393C483.745 417 483.471 418.592 483.081 420.155C486.832 435.041 478.734 440.463 467.171 440.707C466.916 440.841 466.667 440.975 466.412 441.103C468.608 447.488 469.985 454.139 470.509 460.888C470.806 464.871 470.788 468.871 470.457 472.85L470.476 472.709C471.314 468.284 473.614 464.292 476.988 461.406C482 457.181 489.079 455.626 494.486 452.23C495.06 451.851 495.728 451.649 496.411 451.648C497.094 451.646 497.763 451.845 498.339 452.22C498.916 452.596 499.375 453.133 499.664 453.768C499.953 454.403 500.058 455.109 499.969 455.804L499.947 455.952C499.141 456.289 498.356 456.677 497.597 457.114C497.163 457.365 496.738 457.632 496.322 457.915C495.799 458.273 495.394 458.785 495.16 459.383C494.926 459.982 494.873 460.639 495.009 461.268C495.145 461.898 495.463 462.471 495.922 462.912C496.381 463.353 496.958 463.641 497.579 463.739L497.643 463.749C497.689 463.756 497.728 463.763 497.774 463.77C496.397 467.144 494.464 470.249 492.06 472.951C489.715 485.945 479.642 487.178 468.866 483.394H468.86C467.678 488.666 465.965 493.798 463.748 498.707H445.489C445.424 498.499 445.365 498.284 445.306 498.076C446.996 498.185 448.693 498.081 450.358 497.767C449.004 496.061 447.649 494.341 446.294 492.636C446.264 492.604 446.236 492.57 446.209 492.535C445.522 491.662 444.828 490.795 444.141 489.922L444.141 489.921C444.104 487.245 444.404 484.575 445.032 481.977Z" fill="#9CA3AF"/>
<path d="M243.92 80.4197C244.586 81.4562 245.464 82.3317 246.493 82.9857C247.522 83.6397 248.677 84.0565 249.878 84.2074C251.079 84.3583 252.298 84.2396 253.45 83.8596C254.602 83.4795 255.66 82.8472 256.551 82.0063L294.513 99.5822L301.832 90.002L256.595 69.4651C255.104 68.032 253.153 67.2099 251.111 67.1546C249.069 67.0993 247.078 67.8145 245.516 69.1648C243.954 70.5151 242.928 72.4067 242.634 74.481C242.34 76.5554 242.797 78.6684 243.92 80.4197Z" fill="#A0616A"/>
<path d="M406.838 91.3795L410.603 113.274C410.778 114.296 410.744 115.344 410.502 116.351C410.259 117.358 409.814 118.302 409.196 119.122C408.577 119.942 407.798 120.62 406.909 121.113C406.019 121.606 405.039 121.903 404.032 121.984L340.055 127.147L264.853 92.6085L273.835 75.1111L339.117 96.3258L406.838 91.3795Z" fill="#FF7C04"/>
<path d="M398.755 187.884L375.449 238.835L465.101 229.517L446.386 180.605L398.755 187.884Z" fill="#A0616A"/>
<path d="M419.597 480.733L411.097 480.659L407.335 446.23L419.879 446.339L419.597 480.733Z" fill="#A0616A"/>
<path d="M392.371 494.604C392.363 495.638 392.756 496.633 393.462 497.37C394.168 498.108 395.131 498.528 396.138 498.538L413.038 498.683L415.997 492.528L417.083 498.714L423.46 498.773L421.85 476.712L419.631 476.561L410.582 475.92L407.663 475.72L407.611 481.962L394.036 491.411C393.527 491.765 393.11 492.241 392.82 492.797C392.53 493.353 392.376 493.973 392.371 494.604Z" fill="#2F2E41"/>
<path d="M325.53 480.773L317.426 478.139L323.687 444.095L335.648 447.981L325.53 480.773Z" fill="#A0616A"/>
<path d="M295.534 485.822C295.231 486.808 295.321 487.877 295.785 488.795C296.249 489.713 297.049 490.405 298.009 490.718L314.121 495.952L318.711 490.962L317.979 497.202L324.057 499.181L328.834 477.608L326.757 476.794L318.291 473.454L315.558 472.382L313.721 478.333L298.04 483.272C297.452 483.457 296.917 483.786 296.481 484.23C296.044 484.674 295.719 485.221 295.534 485.822Z" fill="#2F2E41"/>
<path d="M461.018 215.189L379.503 230.517C379.503 230.517 366.428 240.553 369.925 244.148C373.423 247.742 373.965 247.185 371.668 249.543C369.37 251.901 364.401 255.054 364.352 257.117C364.304 259.18 327.826 351.725 327.826 351.725C327.826 351.725 331.879 349.645 328.839 352.765C325.799 355.884 325.799 358.462 325.799 358.462L311.613 456.748L334.652 458.14L357.211 368.534L407.529 284.824C407.529 284.824 412.522 359.472 412.731 364.437C412.941 369.402 415.98 363.163 412.941 369.402C409.901 375.641 407.874 371.482 409.901 375.641C411.927 379.8 402.6 464.478 402.6 464.478H423.629L468.73 288.964C468.73 288.964 484.776 238.787 461.018 215.189Z" fill="#2F2E41"/>
<path d="M437.004 74.7995L404.352 71.3179L395.892 82.5889L386.037 87.9754C381.866 90.2549 378.424 93.719 376.121 97.9533C373.818 102.188 372.753 107.013 373.052 111.852L384.569 180.605C384.569 180.605 374.841 203.085 381.529 208.68C388.218 214.275 376.358 228.132 390.649 221.158C404.94 214.184 466.644 222.198 466.644 222.198L453.472 183.724L463.312 145.919L464.395 114.219C464.597 108.296 462.884 102.47 459.523 97.6497C456.162 92.8297 451.341 89.2862 445.812 87.5716L444.436 87.145L437.004 74.7995Z" fill="#FF7C04"/>
<path d="M481.957 49.1114C482.171 58.5562 478.732 67.7015 473.79 75.7342C472.322 71.0448 469.683 66.7768 466.93 62.7083C468.318 71.5097 466.84 80.535 462.725 88.3875C462.58 88.494 462.43 88.5929 462.275 88.6838C458.248 91.17 453.141 92.177 448.784 90.3813C457.787 80.4232 458.932 63.924 451.385 52.7544C449.248 49.585 446.485 46.7819 445.161 43.175C443.071 37.4201 445.08 31.0837 446.347 25.0836C447.532 19.4993 447.74 12.8539 444.089 8.76129C444.479 8.18936 445.01 7.7341 445.628 7.44216C446.246 7.15023 446.928 7.03211 447.605 7.09992C449.856 7.42621 451.494 9.43397 452.538 11.5019C453.581 13.5697 454.27 15.8615 455.724 17.6476C458.417 20.9906 463.003 21.781 466.868 23.5429C476.229 27.8214 481.733 38.602 481.957 49.1114Z" fill="#2F2E41"/>
<path d="M240.805 498.763C240.805 498.925 240.836 499.086 240.896 499.237C240.956 499.387 241.045 499.524 241.157 499.639C241.269 499.754 241.402 499.845 241.549 499.907C241.696 499.969 241.853 500 242.011 500H498.663C498.983 500 499.289 499.87 499.516 499.638C499.742 499.405 499.869 499.091 499.869 498.763C499.869 498.434 499.742 498.12 499.516 497.888C499.289 497.656 498.983 497.525 498.663 497.525H242.011C241.853 497.525 241.696 497.556 241.549 497.618C241.402 497.68 241.269 497.771 241.157 497.886C241.045 498.001 240.956 498.138 240.896 498.288C240.836 498.439 240.805 498.6 240.805 498.763Z" fill="#CCCCCC"/>
<path d="M483.978 268.013C489.015 268.013 493.097 263.824 493.097 258.655C493.097 253.487 489.015 249.297 483.978 249.297C478.942 249.297 474.859 253.487 474.859 258.655C474.859 263.824 478.942 268.013 483.978 268.013Z" fill="#FF7C04"/>
<path d="M403.167 43.7111C403.702 41.79 400.016 53.5337 401.795 53.7458C409.897 54.6997 421.02 59.6657 426.664 61.9824C426.918 61.9521 427.172 61.9218 427.419 61.884C428.024 61.8158 428.615 61.7174 429.198 61.6039C442.339 59.0524 447.392 38.3376 447.392 38.1483C447.392 37.2171 445.214 11.64 441.783 11.2615C440.882 11.1611 439.976 11.1106 439.07 11.11H430.556C428.794 10.7204 427.008 10.4548 425.211 10.3151H425.196C408.056 8.97496 394.542 19.6956 395.805 32.7407C395.813 32.7558 395.828 32.7709 395.835 32.7861C396.201 33.3464 396.523 33.8763 396.807 34.3836C397.083 34.8606 397.315 35.3148 397.517 35.7464C399.079 39.0777 395.063 43.2695 397.726 44.0519C401.268 45.0925 388.412 79.2954 402.43 79.2954C395.611 81.2848 401.692 49.0109 403.167 43.7111Z" fill="#2F2E41"/>
<path d="M418.468 63.7791C429.6 63.7791 438.625 54.5179 438.625 43.0936C438.625 31.6694 429.6 22.4082 418.468 22.4082C407.335 22.4082 398.311 31.6694 398.311 43.0936C398.311 54.5179 407.335 63.7791 418.468 63.7791Z" fill="#A0616A"/>
<path d="M395.805 33.8686C396.142 34.0503 396.47 34.2169 396.807 34.3835C397.158 34.5576 397.509 34.7317 397.861 34.8907C404.611 38.0327 410.105 38.381 413.438 33.8686C413.528 31.4943 414.047 29.1578 414.971 26.9789C414.808 29.4139 415.433 31.836 416.75 33.8686H423.462C430.376 38.5778 433.927 39.07 429.128 54.5301C427.79 58.8381 422.47 83.906 424.563 87.6235C425.168 87.5553 431.61 60.0982 432.193 59.9846C445.334 57.4332 453.683 35.2163 452.614 33.9595C452.619 30.3855 451.818 26.8587 450.274 23.6552C448.321 19.5965 445.276 16.1969 441.499 13.8582C439.248 12.738 436.901 11.8332 434.487 11.1553C434.428 11.1401 434.375 11.125 434.316 11.1099C433.576 10.9054 432.821 10.7162 432.066 10.5572C430.506 10.2192 428.929 9.97401 427.342 9.82279C427.229 9.81521 427.117 9.80762 427.013 9.80762C426.379 9.80914 425.757 9.98427 425.211 10.3149C425.204 10.3149 425.204 10.3225 425.196 10.3225C424.806 10.5563 424.466 10.8678 424.195 11.2385C423.717 11.8624 423.459 12.6334 423.462 13.4266H415.987C415.711 13.4266 415.434 13.4342 415.158 13.4493C410.169 13.6242 405.423 15.7034 401.849 19.2797C398.276 22.8561 396.131 27.6724 395.835 32.786C395.813 33.1494 395.805 33.5052 395.805 33.8686Z" fill="#2F2E41"/>
<path d="M439.878 27.2554C447.212 27.2554 453.158 21.1541 453.158 13.6277C453.158 6.10133 447.212 0 439.878 0C432.544 0 426.599 6.10133 426.599 13.6277C426.599 21.1541 432.544 27.2554 439.878 27.2554Z" fill="#2F2E41"/>
<path d="M484.081 262.514C484.729 261.465 485.147 260.285 485.307 259.054C485.466 257.823 485.364 256.571 485.006 255.384C484.647 254.198 484.042 253.106 483.232 252.183C482.423 251.26 481.427 250.529 480.315 250.04L480.38 207.302L468.865 204.377L469.149 255.138C468.486 257.121 468.555 259.285 469.342 261.219C470.13 263.153 471.582 264.723 473.422 265.632C475.263 266.541 477.364 266.726 479.329 266.152C481.293 265.577 482.984 264.283 484.081 262.514Z" fill="#A0616A"/>
<path d="M257.105 75.688H27.0991C12.1327 75.688 0 88.1386 0 103.497L0 336.525C0 351.884 12.1327 364.335 27.0991 364.335H257.105C272.072 364.335 284.204 351.884 284.204 336.525V103.497C284.204 88.1386 272.072 75.688 257.105 75.688Z" fill="#F2F2F2"/>
<path d="M27.0994 81.4067C24.2725 81.4067 21.4733 81.9781 18.8617 83.0882C16.25 84.1984 13.877 85.8256 11.8781 87.8768C9.87921 89.9281 8.29359 92.3633 7.2118 95.0434C6.13001 97.7235 5.57324 100.596 5.57324 103.497V336.525C5.57324 342.384 7.84116 348.003 11.8781 352.146C15.915 356.288 21.3903 358.616 27.0994 358.616H173.895C187.649 358.616 201.268 355.836 213.976 350.434C226.683 345.033 238.229 337.116 247.954 327.135C257.68 317.155 265.395 305.306 270.659 292.266C275.922 279.225 278.631 265.249 278.631 251.134V103.497C278.631 100.596 278.074 97.7235 276.992 95.0434C275.911 92.3633 274.325 89.9281 272.326 87.8768C270.327 85.8256 267.954 84.1984 265.343 83.0882C262.731 81.9781 259.932 81.4067 257.105 81.4067H27.0994Z" fill="white"/>
<path d="M206.399 152.127H77.302C76.1174 152.127 74.9813 151.644 74.1437 150.784C73.306 149.925 72.8354 148.759 72.8354 147.543C72.8354 146.328 73.306 145.162 74.1437 144.302C74.9813 143.443 76.1174 142.96 77.302 142.96H206.399C207.584 142.96 208.72 143.443 209.558 144.302C210.395 145.162 210.866 146.328 210.866 147.543C210.866 148.759 210.395 149.925 209.558 150.784C208.72 151.644 207.584 152.127 206.399 152.127Z" fill="#F2F2F2"/>
<path d="M206.399 249.871H77.302C76.1174 249.871 74.9813 249.388 74.1437 248.529C73.306 247.669 72.8354 246.503 72.8354 245.287C72.8354 244.072 73.306 242.906 74.1437 242.046C74.9813 241.187 76.1174 240.704 77.302 240.704H206.399C207.584 240.704 208.72 241.187 209.558 242.046C210.395 242.906 210.866 244.072 210.866 245.287C210.866 246.503 210.395 247.669 209.558 248.529C208.72 249.388 207.584 249.871 206.399 249.871Z" fill="#F2F2F2"/>
<path d="M258.823 201.031H24.8782C23.6936 201.031 22.5575 200.548 21.7198 199.688C20.8822 198.829 20.4116 197.663 20.4116 196.447C20.4116 195.232 20.8822 194.066 21.7198 193.206C22.5575 192.347 23.6936 191.864 24.8782 191.864H258.823C260.008 191.864 261.144 192.347 261.982 193.206C262.819 194.066 263.29 195.232 263.29 196.447C263.29 197.663 262.819 198.829 261.982 199.688C261.144 200.548 260.008 201.031 258.823 201.031Z" fill="#F2F2F2"/>
<path d="M427.058 105.519L444.977 93.0218C445.813 92.4388 446.758 92.0416 447.753 91.8558C448.747 91.6699 449.768 91.6995 450.751 91.9426C451.733 92.1857 452.656 92.637 453.458 93.2674C454.261 93.8979 454.926 94.6937 455.411 95.6036L486.219 153.375L486.336 237.924L467.102 236.687L459.207 166.884L427.058 105.519Z" fill="#FF7C04"/>
<path d="M289.437 297.264H97.9284C93.763 297.264 89.7681 298.962 86.8227 301.985C83.8773 305.007 82.2227 309.107 82.2227 313.381C82.2227 317.656 83.8773 321.755 86.8227 324.778C89.7681 327.801 93.763 329.499 97.9284 329.499H289.437C293.602 329.499 297.597 327.801 300.543 324.778C303.488 321.755 305.143 317.656 305.143 313.381C305.143 309.107 303.488 305.007 300.543 301.985C297.597 298.962 293.602 297.264 289.437 297.264Z" fill="white"/>
<path d="M289.437 330.538H97.9282C93.4941 330.538 89.2415 328.731 86.1061 325.513C82.9707 322.296 81.2092 317.932 81.2092 313.381C81.2092 308.831 82.9707 304.467 86.1061 301.249C89.2415 298.032 93.4941 296.224 97.9282 296.224H289.437C293.871 296.224 298.124 298.032 301.259 301.249C304.394 304.467 306.156 308.831 306.156 313.381C306.156 317.932 304.394 322.296 301.259 325.513C298.124 328.731 293.871 330.538 289.437 330.538ZM97.9282 298.304C94.0316 298.304 90.2945 299.892 87.5391 302.72C84.7837 305.547 83.2358 309.382 83.2358 313.381C83.2358 317.38 84.7837 321.215 87.5391 324.043C90.2945 326.87 94.0316 328.459 97.9282 328.459H289.437C293.334 328.459 297.071 326.87 299.826 324.043C302.581 321.215 304.129 317.38 304.129 313.381C304.129 309.382 302.581 305.547 299.826 302.72C297.071 299.892 293.334 298.304 289.437 298.304H97.9282Z" fill="#FF7C04"/>
</svg>
