<svg width="449" height="342" viewBox="0 0 449 342" fill="none" xmlns="http://www.w3.org/2000/svg">
<path d="M179.667 70.9229H178.029V26.0001C178.029 22.5857 177.358 19.2048 176.053 16.0503C174.747 12.8958 172.834 10.0296 170.423 7.61527C168.011 5.20094 165.148 3.28578 161.997 1.97915C158.846 0.67252 155.469 2.89293e-06 152.059 0H56.9916C50.1038 -1.31455e-05 43.4981 2.73926 38.6276 7.61521C33.7572 12.4912 31.021 19.1044 31.021 26V272.45C31.021 275.865 31.6927 279.245 32.9979 282.4C34.303 285.554 36.216 288.421 38.6276 290.835C41.0392 293.249 43.9022 295.164 47.0531 296.471C50.204 297.778 53.5811 298.45 56.9916 298.45H152.059C158.947 298.45 165.552 295.711 170.423 290.835C175.293 285.959 178.029 279.346 178.029 272.45V102.9H179.667V70.9229Z" fill="#3F3D56"/>
<path d="M153.107 6.76428H140.697C141.268 8.16499 141.486 9.6847 141.331 11.1895C141.177 12.6944 140.656 14.1382 139.813 15.3937C138.97 16.6493 137.832 17.678 136.498 18.3894C135.165 19.1008 133.677 19.4729 132.166 19.473H77.7032C76.1922 19.4729 74.7044 19.1008 73.3709 18.3894C72.0373 17.678 70.899 16.6493 70.0562 15.3937C69.2133 14.1382 68.6919 12.6944 68.5377 11.1895C68.3835 9.68471 68.6013 8.16499 69.172 6.76428H57.5816C55.0347 6.76428 52.5127 7.26651 50.1596 8.24228C47.8066 9.21805 45.6685 10.6483 43.8676 12.4513C42.0666 14.2543 40.638 16.3947 39.6633 18.7504C38.6887 21.1062 38.187 23.631 38.187 26.1809V272.269C38.187 274.819 38.6887 277.344 39.6633 279.7C40.638 282.055 42.0666 284.196 43.8675 285.999C45.6685 287.802 47.8065 289.232 50.1596 290.208C52.5127 291.184 55.0346 291.686 57.5816 291.686H153.107C155.653 291.686 158.175 291.184 160.529 290.208C162.882 289.232 165.02 287.802 166.821 285.999C168.622 284.196 170.05 282.055 171.025 279.7C171.999 277.344 172.501 274.819 172.501 272.269V26.1809C172.501 23.631 171.999 21.1062 171.025 18.7504C170.05 16.3947 168.622 14.2543 166.821 12.4513C165.02 10.6483 162.882 9.21805 160.529 8.24228C158.175 7.26651 155.653 6.76428 153.107 6.76428Z" fill="white"/>
<path d="M210.138 298.493H0.5501C0.404204 298.493 0.264284 298.435 0.16112 298.331C0.0579564 298.228 0 298.088 0 297.942C0 297.796 0.0579564 297.656 0.16112 297.553C0.264284 297.449 0.404204 297.391 0.5501 297.391H210.138C210.284 297.391 210.424 297.449 210.527 297.553C210.63 297.656 210.688 297.796 210.688 297.942C210.688 298.088 210.63 298.228 210.527 298.331C210.424 298.435 210.284 298.493 210.138 298.493Z" fill="#CBCBCB"/>
<path d="M105.344 190.374C131 190.374 151.798 169.553 151.798 143.868C151.798 118.183 131 97.3612 105.344 97.3612C79.6882 97.3612 58.8901 118.183 58.8901 143.868C58.8901 169.553 79.6882 190.374 105.344 190.374Z" fill="#FF7C04"/>
<path d="M100.741 161.609C99.696 161.61 98.6787 161.272 97.8425 160.644L97.7907 160.605L86.8734 152.244C86.3678 151.856 85.9435 151.372 85.6247 150.82C85.3059 150.268 85.0988 149.658 85.0154 149.026C84.932 148.394 84.9738 147.751 85.1384 147.135C85.303 146.519 85.5873 145.941 85.9749 145.435C86.3626 144.929 86.846 144.504 87.3976 144.185C87.9492 143.865 88.5582 143.658 89.1899 143.575C89.8215 143.491 90.4634 143.533 91.0789 143.698C91.6943 143.863 92.2714 144.147 92.777 144.535L99.8483 149.964L116.558 128.139C116.946 127.633 117.429 127.209 117.98 126.89C118.532 126.571 119.141 126.363 119.772 126.28C120.403 126.196 121.045 126.238 121.66 126.403C122.275 126.568 122.852 126.852 123.357 127.24L123.359 127.241L123.255 127.385L123.362 127.241C124.381 128.026 125.048 129.183 125.217 130.46C125.385 131.736 125.04 133.027 124.259 134.05L104.604 159.709C104.15 160.3 103.565 160.778 102.896 161.107C102.226 161.435 101.491 161.605 100.745 161.603L100.741 161.609Z" fill="white"/>
<path d="M381.904 303.064C382.469 302.149 383.135 301.3 383.888 300.533C384.198 300.211 384.526 299.907 384.864 299.611C386.917 297.781 389.421 296.531 392.118 295.991C394.814 295.451 397.605 295.639 400.205 296.537C402.804 297.435 405.118 299.009 406.908 301.099C408.698 303.189 409.899 305.718 410.389 308.427C412.658 300.027 406.752 291.753 400.814 285.398C394.873 279.045 388.083 272.075 388.117 263.37C388.134 258.526 390.501 254.204 394.074 251C394.185 250.903 394.295 250.806 394.407 250.713C398.727 247.006 404.284 245.067 409.969 245.284C420.53 245.85 429.752 252.956 436.156 261.386C446.464 274.948 450.981 293.987 443.765 309.426C437.417 323.005 423.879 331.068 410.063 337.551C408.133 338.456 406.208 339.334 404.286 340.185C404.274 340.188 404.26 340.197 404.247 340.201C404.155 340.241 404.062 340.282 403.975 340.324C403.579 340.499 403.182 340.675 402.789 340.848L402.971 340.967L403.539 341.335C403.342 341.216 403.147 341.1 402.95 340.98C402.892 340.944 402.83 340.91 402.771 340.874C395.985 336.798 389.105 332.485 384.417 326.121C379.555 319.514 377.6 310.049 381.904 303.064Z" fill="#FFA757"/>
<path d="M427.179 287.719C428.682 291.141 429.678 294.764 430.136 298.474C430.497 301.782 430.361 305.126 429.734 308.394C428.387 315.11 425.448 321.404 421.165 326.746C417.934 330.801 414.204 334.432 410.063 337.551C408.134 338.456 406.209 339.334 404.287 340.185C404.274 340.188 404.26 340.197 404.248 340.201C404.155 340.242 404.063 340.282 403.976 340.324C403.579 340.499 403.183 340.675 402.789 340.848L402.971 340.967L403.54 341.335C403.343 341.216 403.148 341.1 402.951 340.98C402.892 340.944 402.83 340.91 402.772 340.874C404.265 335.644 404.485 330.132 403.412 324.8C402.339 319.468 400.006 314.471 396.607 310.228C393.189 306.038 388.832 302.716 383.888 300.533C384.199 300.211 384.526 299.907 384.864 299.611C386.768 300.487 388.591 301.529 390.312 302.726C396.466 306.984 401.087 313.113 403.491 320.205C405.638 326.64 405.906 333.554 404.264 340.135C404.605 339.912 404.947 339.684 405.279 339.456C411.601 335.188 417.427 330.062 421.816 323.776C425.601 318.464 428.023 312.301 428.869 305.831C429.71 298.763 427.944 291.813 424.792 285.507C421.311 278.76 416.925 272.521 411.756 266.964C406.565 261.253 400.694 256.2 394.276 251.917C394.132 251.819 394.03 251.669 393.993 251.499C393.955 251.328 393.985 251.15 394.075 251.001C394.144 250.865 394.263 250.761 394.408 250.713C394.481 250.694 394.558 250.692 394.632 250.707C394.706 250.722 394.776 250.754 394.837 250.8C395.629 251.329 396.415 251.863 397.191 252.413C403.654 256.995 409.523 262.362 414.665 268.393C419.633 274.206 424.154 280.664 427.179 287.719Z" fill="white"/>
<path d="M288.826 21.5942C294.274 21.5942 298.691 17.1722 298.691 11.7174C298.691 6.26266 294.274 1.8407 288.826 1.8407C283.377 1.8407 278.96 6.26266 278.96 11.7174C278.96 17.1722 283.377 21.5942 288.826 21.5942Z" fill="#FFA757"/>
<path d="M411.498 153.768C414.82 153.768 417.513 151.072 417.513 147.747C417.513 144.421 414.82 141.725 411.498 141.725C408.176 141.725 405.483 144.421 405.483 147.747C405.483 151.072 408.176 153.768 411.498 153.768Z" fill="#FFA757"/>
<path d="M235.466 170.29C238.788 170.29 241.481 167.594 241.481 164.268C241.481 160.943 238.788 158.247 235.466 158.247C232.144 158.247 229.451 160.943 229.451 164.268C229.451 167.594 232.144 170.29 235.466 170.29Z" fill="#FFA757"/>
<path d="M238.862 342H448.45C448.596 342 448.736 341.942 448.839 341.839C448.942 341.735 449 341.595 449 341.449C449 341.303 448.942 341.163 448.839 341.06C448.736 340.957 448.596 340.899 448.45 340.899H238.862C238.716 340.899 238.576 340.957 238.473 341.06C238.369 341.163 238.312 341.303 238.312 341.449C238.312 341.595 238.369 341.735 238.473 341.839C238.576 341.942 238.716 342 238.862 342Z" fill="#CBCBCB"/>
<path d="M425.32 53.2194C425.596 51.2632 425.145 49.274 424.053 47.6286C422.961 45.9832 421.304 44.796 419.396 44.2918C417.488 43.7877 415.462 44.0018 413.701 44.8934C411.94 45.785 410.567 47.2923 409.843 49.1296L392.835 68.6496L397.825 82.6032L414.93 59.7948C416.046 60.1527 417.227 60.2613 418.389 60.1129C419.552 59.9645 420.668 59.5626 421.658 58.9357C422.649 58.3088 423.49 57.4721 424.123 56.4844C424.756 55.4968 425.165 54.3823 425.32 53.2194Z" fill="#FFB7B7"/>
<path d="M354.822 129.172L411.278 68.8515L403.663 56.7312L332.853 116.685L354.822 129.172Z" fill="#3F3D56"/>
<path d="M342.222 92.5217C353.159 92.5217 362.025 83.6452 362.025 72.6956C362.025 61.7459 353.159 52.8695 342.222 52.8695C331.284 52.8695 322.418 61.7459 322.418 72.6956C322.418 83.6452 331.284 92.5217 342.222 92.5217Z" fill="#2F2E41"/>
<path d="M343.813 61.4957C348.075 57.1695 353.232 53.831 358.921 51.7153C362.573 50.3608 366.548 49.524 370.366 50.2932C374.184 51.0624 377.794 53.7066 378.86 57.4569C379.73 60.5235 378.831 63.8253 377.479 66.7121C376.128 69.5989 374.323 72.2758 373.23 75.2703C372.115 78.3257 371.779 81.6116 372.254 84.8298C372.729 88.0479 374 91.0963 375.95 93.6983C377.9 96.3003 380.468 98.3735 383.422 99.7296C386.376 101.086 389.621 101.682 392.863 101.464C389.111 101.968 385.653 103.732 381.987 104.672C378.32 105.611 373.992 105.548 371.267 102.918C368.384 100.135 368.327 95.6112 368.466 91.6045C368.673 85.6484 368.881 79.6923 369.088 73.7362C369.193 70.6987 369.284 67.5639 368.189 64.7288C367.095 61.8938 364.495 59.4112 361.459 59.437C359.158 59.4566 357.122 60.852 355.277 62.2281C353.431 63.6042 351.479 65.0725 349.187 65.2771C346.895 65.4818 344.278 63.7839 344.45 61.4868L343.813 61.4957Z" fill="#2F2E41"/>
<path d="M267.006 205.818C265.104 206.347 263.076 206.159 261.303 205.29C259.531 204.422 258.139 202.932 257.391 201.105C256.642 199.277 256.589 197.238 257.242 195.373C257.895 193.509 259.208 191.95 260.933 190.99L278.041 171.559L292.512 174.688L272.16 194.646C272.66 195.707 272.922 196.865 272.927 198.038C272.932 199.211 272.679 200.371 272.188 201.437C271.697 202.502 270.978 203.446 270.083 204.203C269.187 204.96 268.137 205.512 267.006 205.818Z" fill="#FFB7B7"/>
<path d="M323.293 136.252L280.652 189.838L267.654 183.863L317.773 105.746L323.293 136.252Z" fill="#3F3D56"/>
<path d="M289.269 298.058L279.106 297.898L280.329 332.575H289.267L289.269 298.058Z" fill="#FFB7B7"/>
<path d="M291.548 329.654L273.944 329.653H273.943C270.968 329.653 268.115 330.837 266.011 332.943C263.907 335.049 262.725 337.906 262.725 340.884V341.249L291.547 341.25L291.548 329.654Z" fill="#2F2E41"/>
<path d="M356.556 288.861L345.454 295.996L367.661 322.742L375.183 317.907L356.556 288.861Z" fill="#FFB7B7"/>
<path d="M375.525 314.215L360.711 323.737L360.71 323.737C358.207 325.347 356.444 327.886 355.811 330.796C355.177 333.706 355.724 336.749 357.331 339.256L357.528 339.563L381.782 323.974L375.525 314.215Z" fill="#2F2E41"/>
<path d="M360.51 182.973C360.51 182.973 335.844 100.955 327.917 99.8464C319.99 98.738 307.218 120.891 307.218 120.891C290.658 142.044 273.583 210.561 273.583 210.561C273.583 210.561 302.048 212.344 322.857 223.428C343.665 234.511 368.222 222.866 368.222 222.866L360.51 182.973Z" fill="#3F3D56"/>
<path opacity="0.1" d="M360.51 182.973C360.51 182.973 335.844 100.955 327.917 99.8465C319.99 98.7381 310.462 121.116 310.462 121.116C302.21 155.261 273.583 210.561 273.583 210.561C273.583 210.561 302.048 212.344 322.857 223.428C343.665 234.511 368.222 222.867 368.222 222.867L360.51 182.973Z" fill="black"/>
<path d="M340.274 158.434V199.647L345.119 259.348L369.323 304.507L357.771 312.768L324.765 269.812L311.711 227.158L291.209 321.58L275.806 320.478L286.503 189.565L306.803 152.716L340.274 158.434Z" fill="#2F2E41"/>
<path d="M315.404 118.571C307.703 126.281 314.854 134.542 314.854 134.542L306.052 154.368L340.709 163.73L352.82 109.551L344.568 100.739C328.065 100.189 328.056 99.8462 328.056 99.8462C325.165 102.679 315.404 118.571 315.404 118.571Z" fill="#6C63FF"/>
<path d="M354.215 103.938C352.641 102.775 350.852 101.936 348.952 101.47C347.052 101.004 345.078 100.92 343.145 101.222C341.212 101.525 339.359 102.209 337.692 103.234C336.025 104.259 334.578 105.605 333.434 107.195C324.721 119.339 316.665 138.95 327.765 163.408C345.588 202.68 361.098 222.784 367.403 222.782C367.678 222.784 367.952 222.741 368.213 222.654C372.094 221.336 377.706 214.761 378.721 208.968C379.085 206.894 378.999 204.005 376.521 202.022C369.405 196.324 356.631 178.582 352.646 155.23C350.444 142.327 354.714 130.573 358.685 122.985C360.362 119.845 360.853 116.206 360.067 112.734C359.281 109.261 357.272 106.189 354.407 104.079L354.215 103.938Z" fill="#3F3D56"/>
<path d="M343.24 90.574C350.304 86.7078 352.901 77.8403 349.039 70.7679C345.177 63.6954 336.32 61.0962 329.255 64.9624C322.191 68.8285 319.594 77.696 323.456 84.7685C327.318 91.8409 336.175 94.4401 343.24 90.574Z" fill="#FFB7B7"/>
<path d="M315.746 76.6647H336.796L337.012 73.6391L338.091 76.6647H341.332L341.76 70.6681L343.899 76.6647H350.171V76.3676C350.166 72.1929 348.508 68.1904 345.559 65.2384C342.61 62.2864 338.612 60.6259 334.442 60.6212H331.475C327.305 60.6259 323.307 62.2864 320.358 65.2384C317.409 68.1904 315.751 72.1929 315.746 76.3676V76.6647Z" fill="#2F2E41"/>
<path d="M346.991 87.54L355.974 84.6219V62.7826H339.006L339.426 63.2025C345.271 69.0462 351.771 89.7788 346.991 87.54Z" fill="#2F2E41"/>
</svg>
