<svg width="233" height="100" viewBox="0 0 233 100" fill="none" xmlns="http://www.w3.org/2000/svg">
<path d="M70.9117 25.1065L67.2208 1.50338C67.0283 0.271447 65.6541 -0.383394 64.5704 0.238429L43.4026 12.3774C42.1496 13.0953 42.2309 14.9212 43.5436 15.5258L44.8746 16.1397C45.5866 16.4682 46.0114 17.2217 45.8952 17.9948C41.977 44.0175 17.8896 69.643 11.1574 67.0028C4.2786 64.3053 28.1743 45.2634 30.8147 43.1836C30.9757 43.0569 31.1068 42.9094 31.2147 42.7368L36.0739 34.9837C36.9551 33.5785 35.5843 31.8124 34.0127 32.3537C11.1677 40.2165 -18.1439 84.8546 14.6513 74.8325C44.4713 65.7199 61.1501 37.1776 66.0724 27.7812C66.5122 26.9396 67.5361 26.5913 68.4024 26.9908C69.6919 27.5858 71.1307 26.507 70.9117 25.1065Z" fill="#FF7C04"/>
<path d="M47.9494 82.7872C64.1103 71.9312 72.6372 64.7227 79.2107 50.7538C79.4879 50.1643 80.2115 49.9397 80.7691 50.2818L81.3317 50.6261C82.0901 51.0903 83.0593 50.5071 82.9979 49.6229L81.9076 33.9154C81.8561 33.1841 81.1093 32.7106 80.4223 32.9737L65.3168 38.7607C64.4721 39.0846 64.3642 40.2329 65.1359 40.7056C65.5906 40.9847 65.7848 41.5521 65.5857 42.0462C64.2348 45.3947 64.2962 44.918 62.4242 48.0522C59.5863 52.8059 56.1526 57.2373 52.2974 61.3086C48.4439 65.3405 44.0328 69.0201 39.5552 72.2355C30.5935 78.7182 20.7523 84.1883 10.254 88.3724C10.0965 88.4355 9.93731 88.4969 9.77898 88.5584C8.97957 88.8665 8.83236 89.9194 9.5083 90.4434C16.907 96.1831 26.2056 99.609 36.3124 99.609C56.9144 99.609 74.1756 85.3989 78.7677 66.2878C79.0332 65.1804 77.6159 64.4476 76.8724 65.3128C66.135 77.8143 55.3046 82.7769 48.882 84.7314C47.6822 85.0962 46.9088 83.4853 47.9494 82.7872Z" fill="#1F2A37"/>
<path d="M113.106 12.8551C118.225 12.8551 122.167 14.1924 124.928 16.867C127.718 19.5415 129.114 23.2659 129.114 28.0398C129.114 32.8137 127.718 36.5236 124.928 39.1695C122.167 41.8153 118.225 43.1382 113.106 43.1382H104.605V12.8551H113.106ZM113.106 41.4989C117.679 41.4989 121.16 40.3198 123.548 37.9616C125.934 35.5746 127.129 32.2673 127.129 28.0398C127.129 23.7835 125.934 20.4619 123.548 18.0748C121.16 15.6878 117.679 14.4944 113.106 14.4944H106.547V41.4989H113.106ZM156.085 29.8516C156.085 30.8869 156.057 31.6634 155.999 32.1811H135.762C135.82 34.2804 136.28 36.0491 137.143 37.4871C138.006 38.9251 139.143 40.0035 140.552 40.7224C141.962 41.4414 143.501 41.8009 145.169 41.8009C147.47 41.8009 149.397 41.2401 150.951 40.1185C152.504 38.9682 153.483 37.4152 153.885 35.4596H155.913C155.453 37.8466 154.273 39.7878 152.374 41.2832C150.476 42.7499 148.075 43.4833 145.169 43.4833C142.983 43.4833 141.026 42.9943 139.3 42.0166C137.574 41.0388 136.223 39.644 135.244 37.8322C134.267 35.9917 133.777 33.849 133.777 31.4046C133.777 28.9601 134.252 26.8319 135.201 25.0201C136.18 23.2083 137.531 21.8279 139.257 20.8788C140.983 19.9011 142.955 19.4121 145.169 19.4121C147.412 19.4121 149.354 19.9011 150.994 20.8788C152.663 21.8279 153.928 23.1076 154.791 24.7181C155.654 26.2998 156.085 28.0111 156.085 29.8516ZM154.144 30.5849C154.23 28.5143 153.856 26.7601 153.022 25.3221C152.217 23.8841 151.11 22.82 149.699 22.1298C148.29 21.4109 146.765 21.0514 145.125 21.0514C143.486 21.0514 141.962 21.4109 140.552 22.1298C139.171 22.82 138.036 23.8841 137.143 25.3221C136.28 26.7601 135.82 28.5143 135.762 30.5849H154.144ZM169.763 43.4833C167.146 43.4833 165.004 42.9081 163.334 41.7578C161.695 40.6075 160.775 38.9682 160.573 36.84H162.558C162.702 38.3643 163.392 39.5721 164.629 40.4636C165.895 41.3551 167.606 41.8009 169.763 41.8009C171.548 41.8009 172.957 41.3551 173.992 40.4636C175.058 39.5433 175.589 38.4217 175.589 37.0988C175.589 36.1785 175.301 35.4309 174.726 34.8556C174.18 34.2517 173.489 33.7916 172.654 33.4752C171.821 33.1588 170.685 32.8137 169.246 32.4399C167.52 31.9798 166.126 31.534 165.06 31.1026C163.996 30.6425 163.09 29.9666 162.342 29.0751C161.595 28.1836 161.22 26.99 161.22 25.4946C161.22 24.4017 161.552 23.3953 162.212 22.4749C162.875 21.5259 163.796 20.7781 164.974 20.2317C166.154 19.6854 167.492 19.4121 168.987 19.4121C171.433 19.4121 173.403 20.0305 174.898 21.2671C176.423 22.4749 177.243 24.1573 177.358 26.3142H175.416C175.33 24.7613 174.726 23.4958 173.604 22.5181C172.482 21.5403 170.928 21.0514 168.944 21.0514C167.276 21.0514 165.895 21.4828 164.801 22.3455C163.709 23.2083 163.162 24.258 163.162 25.4946C163.162 26.5875 163.464 27.479 164.068 28.1692C164.702 28.8307 165.464 29.3484 166.355 29.7222C167.276 30.0673 168.484 30.4411 169.979 30.8438C171.619 31.2752 172.928 31.7065 173.906 32.1379C174.913 32.5406 175.761 33.1445 176.452 33.9497C177.142 34.7262 177.487 35.776 177.487 37.0988C177.487 38.3067 177.157 39.3996 176.495 40.3773C175.834 41.3551 174.913 42.1173 173.733 42.6637C172.555 43.21 171.231 43.4833 169.763 43.4833ZM182.194 31.4046C182.194 28.9601 182.668 26.8319 183.618 25.0201C184.595 23.2083 185.933 21.8279 187.63 20.8788C189.356 19.9011 191.326 19.4121 193.542 19.4121C196.476 19.4121 198.877 20.1455 200.748 21.6122C202.646 23.0789 203.826 25.0488 204.286 27.5221H202.258C201.885 25.5091 200.905 23.9272 199.324 22.7769C197.77 21.6266 195.844 21.0514 193.542 21.0514C191.816 21.0514 190.248 21.4396 188.839 22.2161C187.43 22.9639 186.293 24.1286 185.43 25.7103C184.595 27.2633 184.179 29.1614 184.179 31.4046C184.179 33.6765 184.595 35.589 185.43 37.142C186.293 38.6949 187.43 39.8597 188.839 40.6362C190.248 41.4127 191.816 41.8009 193.542 41.8009C195.844 41.8009 197.77 41.2257 199.324 40.0754C200.905 38.9251 201.885 37.3432 202.258 35.3302H204.286C203.826 37.7746 202.646 39.7447 200.748 41.2401C198.849 42.7355 196.448 43.4833 193.542 43.4833C191.326 43.4833 189.356 42.9943 187.63 42.0166C185.933 41.0388 184.595 39.644 183.618 37.8322C182.668 35.9917 182.194 33.849 182.194 31.4046ZM220.513 43.4833C218.328 43.4833 216.358 42.9943 214.602 42.0166C212.848 41.0388 211.467 39.644 210.46 37.8322C209.482 35.9917 208.992 33.849 208.992 31.4046C208.992 28.9888 209.497 26.875 210.503 25.0632C211.51 23.2227 212.891 21.8279 214.645 20.8788C216.429 19.9011 218.414 19.4121 220.6 19.4121C222.787 19.4121 224.757 19.9011 226.511 20.8788C228.267 21.8279 229.633 23.2083 230.61 25.0201C231.617 26.8319 232.12 28.9601 232.12 31.4046C232.12 33.849 231.617 35.9917 230.61 37.8322C229.604 39.644 228.209 41.0388 226.425 42.0166C224.67 42.9943 222.701 43.4833 220.513 43.4833ZM220.513 41.7578C222.211 41.7578 223.793 41.384 225.26 40.6362C226.757 39.8597 227.95 38.6949 228.841 37.142C229.734 35.589 230.179 33.6765 230.179 31.4046C230.179 29.1614 229.734 27.2633 228.841 25.7103C227.95 24.1573 226.77 23.007 225.303 22.2592C223.836 21.4828 222.254 21.0945 220.556 21.0945C218.86 21.0945 217.277 21.4828 215.81 22.2592C214.373 23.007 213.208 24.1573 212.315 25.7103C211.424 27.2633 210.977 29.1614 210.977 31.4046C210.977 33.6765 211.409 35.589 212.272 37.142C213.165 38.6949 214.33 39.8597 215.767 40.6362C217.234 41.384 218.817 41.7578 220.513 41.7578ZM109.222 54.6362V84.6173H104.303V54.6362H109.222ZM128.322 60.4599C130.193 60.4599 131.86 60.8481 133.328 61.6246C134.823 62.4011 135.988 63.5514 136.823 65.0757C137.657 66.6 138.074 68.4405 138.074 70.5974V84.6173H133.198V71.3307C133.198 69.2025 132.665 67.5777 131.602 66.4561C130.538 65.3058 129.084 64.7306 127.244 64.7306C125.403 64.7306 123.936 65.3058 122.842 66.4561C121.779 67.5777 121.246 69.2025 121.246 71.3307V84.6173H116.327V60.8481H121.246V63.5658C122.051 62.5881 123.073 61.8259 124.309 61.2795C125.576 60.7331 126.913 60.4599 128.322 60.4599ZM154.187 80.2172L160.918 60.8481H166.139L157.078 84.6173H151.209L142.191 60.8481H147.455L154.187 80.2172ZM192.294 72.1504C192.294 73.0418 192.237 73.8472 192.121 74.5661H173.956C174.1 76.4642 174.805 77.9885 176.07 79.1388C177.336 80.2891 178.889 80.8643 180.73 80.8643C183.377 80.8643 185.247 79.7571 186.339 77.5426H191.647C190.928 79.7283 189.619 81.5258 187.72 82.9349C185.851 84.3154 183.521 85.0056 180.73 85.0056C178.458 85.0056 176.415 84.5024 174.603 83.4957C172.82 82.4604 171.41 81.0224 170.374 79.1819C169.368 77.3125 168.864 75.1556 168.864 72.7112C168.864 70.2667 169.354 68.1241 170.331 66.2836C171.338 64.4142 172.734 62.9763 174.516 61.9697C176.329 60.9631 178.4 60.4599 180.73 60.4599C182.974 60.4599 184.973 60.9488 186.728 61.9266C188.483 62.9043 189.849 64.2848 190.827 66.0679C191.806 67.8221 192.294 69.8496 192.294 72.1504ZM187.159 70.5974C187.131 68.7856 186.484 67.3333 185.217 66.2404C183.953 65.1475 182.385 64.6012 180.514 64.6012C178.818 64.6012 177.364 65.1475 176.156 66.2404C174.948 67.3044 174.229 68.7569 173.999 70.5974H187.159ZM206.412 85.0056C204.542 85.0056 202.859 84.6749 201.363 84.0134C199.896 83.3232 198.731 82.4028 197.868 81.2525C197.005 80.0734 196.546 78.765 196.488 77.327H201.579C201.665 78.3336 202.14 79.1819 203.003 79.8721C203.894 80.5336 205.003 80.8643 206.326 80.8643C207.706 80.8643 208.77 80.6055 209.519 80.0878C210.295 79.5414 210.684 78.8512 210.684 78.0172C210.684 77.1257 210.252 76.4642 209.389 76.0328C208.554 75.6014 207.217 75.1269 205.376 74.6092C203.592 74.1203 202.14 73.6458 201.018 73.1857C199.896 72.7256 198.919 72.0209 198.084 71.0719C197.279 70.1229 196.876 68.8719 196.876 67.3189C196.876 66.0534 197.249 64.9031 197.998 63.8678C198.746 62.8038 199.81 61.9697 201.191 61.3658C202.6 60.7618 204.211 60.4599 206.024 60.4599C208.727 60.4599 210.899 61.1501 212.539 62.5305C214.207 63.8822 215.1 65.7372 215.214 68.0954H210.295C210.209 67.0313 209.777 66.1828 209.001 65.5502C208.224 64.9176 207.174 64.6012 205.851 64.6012C204.556 64.6012 203.564 64.8455 202.874 65.3345C202.183 65.8235 201.838 66.4705 201.838 67.2757C201.838 67.9084 202.069 68.4405 202.528 68.8718C202.988 69.3032 203.549 69.6483 204.211 69.9072C204.873 70.1373 205.851 70.4393 207.145 70.8131C208.871 71.2732 210.28 71.7477 211.374 72.2366C212.496 72.6967 213.46 73.3869 214.265 74.3073C215.07 75.2276 215.488 76.4498 215.516 77.974C215.516 79.3258 215.143 80.5336 214.394 81.5976C213.646 82.6617 212.582 83.4957 211.201 84.0997C209.849 84.7036 208.252 85.0056 206.412 85.0056ZM227.218 64.86V78.0172C227.218 78.9086 227.419 79.5557 227.822 79.9584C228.254 80.3322 228.972 80.5192 229.979 80.5192H233V84.6173H229.117C226.901 84.6173 225.203 84.0997 224.025 83.0644C222.845 82.029 222.256 80.3466 222.256 78.0172V64.86H219.451V60.8481H222.256V54.9382H227.218V60.8481H233V64.86H227.218Z" fill="#1F2A37"/>
</svg>
