<svg width="230" height="89" viewBox="0 0 230 89" fill="none" xmlns="http://www.w3.org/2000/svg">
<g id="logo-footer" clip-path="url(#clip0_1166_4953)">
<path id="Vector" d="M10.7282 59.0586C10.9738 58.2327 11.2632 57.4024 11.5945 56.5715C11.9993 55.5576 11.3106 54.4457 10.2157 54.383L6.02792 54.1436L3.31793 53.9887C2.66255 53.9514 2.03971 54.3161 1.76934 54.9111C1.11396 56.354 0.549166 57.7982 0.0792146 59.2347C-0.285989 60.35 0.665248 61.4576 1.83163 61.2908L3.47078 61.0563L9.42019 60.2043C10.0473 60.1149 10.5484 59.6621 10.7282 59.0586Z" fill="#FF7C04"/>
<path id="Vector_2" d="M18.217 45.9588C19.0599 44.9871 19.9602 44.035 20.9164 43.1084C21.588 42.4578 21.5767 41.3832 20.8654 40.7755L18.1257 38.4363L16.8078 37.3111C16.192 36.7858 15.2685 36.797 14.6782 37.3505C13.2096 38.7285 11.833 40.1502 10.5491 41.6036C9.83071 42.4169 10.1082 43.6886 11.1068 44.1188L12.2138 44.5955L16.3761 46.389C17.0194 46.6665 17.7584 46.4869 18.217 45.9588Z" fill="#FF7C04"/>
<path id="Vector_3" d="M35.2386 33.545C35.8826 33.269 36.2769 32.6219 36.2047 31.9276L35.7383 27.4386L35.6144 26.2451C35.5026 25.1684 34.3666 24.5227 33.3715 24.9593C31.5915 25.7402 29.8144 26.6183 28.052 27.597C27.3436 27.9907 27.0548 28.8631 27.3733 29.6053L28.0556 31.1946L29.4732 34.4978C29.8412 35.3554 30.8682 35.6899 31.6942 35.2484C32.8697 34.6203 34.0531 34.0528 35.2386 33.545Z" fill="#FF7C04"/>
<path id="Vector_4" d="M71.0311 22.4327L67.731 1.34319C67.559 0.242599 66.3303 -0.342562 65.3607 0.213017L46.4345 11.0591C45.3149 11.7006 45.3878 13.3321 46.5605 13.8722L47.751 14.4208C48.388 14.7144 48.768 15.3876 48.664 16.0783C45.1606 39.3296 23.6228 62.2259 17.6033 59.867C11.4529 57.4566 32.818 40.4429 35.1798 38.5846C35.3234 38.4712 35.4402 38.3395 35.5372 38.1853L39.8821 31.2579C40.6692 30.0023 39.444 28.4243 38.0384 28.908C17.6125 35.9334 -8.59578 75.8174 20.7274 66.8627C47.39 58.7206 62.3032 33.2182 66.704 24.8225C67.0983 24.0705 68.0134 23.7593 68.7876 24.1162C69.9413 24.6479 71.2273 23.684 71.0311 22.4327Z" fill="#FF7C04"/>
<path id="Vector_5" d="M50.5001 73.9695C64.9503 64.2697 72.5742 57.8288 78.4512 45.3477C78.6995 44.821 79.3472 44.6203 79.846 44.9259L80.349 45.2336C81.0271 45.6483 81.8927 45.1273 81.8384 44.3372L80.8627 30.3027C80.8175 29.6492 80.1494 29.226 79.5349 29.4612L66.0289 34.6318C65.273 34.9212 65.1775 35.9472 65.8676 36.3697C66.2745 36.6189 66.4472 37.1259 66.2689 37.5675C65.0615 40.5594 65.1159 40.1334 63.4421 42.9338C60.9047 47.1813 57.8345 51.1408 54.3885 54.7785C50.9423 58.3809 46.9988 61.6686 42.9942 64.5415C34.9817 70.334 26.1821 75.2212 16.7959 78.9599C16.6551 79.0164 16.5128 79.0708 16.3712 79.1259C15.6564 79.4014 15.5247 80.3422 16.1292 80.8105C22.7446 85.9386 31.0586 88.9999 40.0952 88.9999C58.5168 88.9999 73.9493 76.3033 78.0561 59.2273C78.2939 58.2379 77.0253 57.5831 76.3607 58.3563C66.7601 69.5262 57.0772 73.9604 51.3338 75.7065C50.2608 76.0328 49.57 74.5932 50.5001 73.9695Z" fill="white"/>
<path id="Vector_6" d="M118.262 11.7876C122.95 11.7876 126.559 13.0138 129.088 15.4663C131.642 17.9187 132.92 21.3337 132.92 25.7112C132.92 30.0886 131.642 33.4904 129.088 35.9165C126.559 38.3426 122.95 39.5556 118.262 39.5556H110.479V11.7876H118.262ZM118.262 38.0525C122.45 38.0525 125.637 36.9713 127.823 34.8089C130.01 32.6202 131.103 29.5876 131.103 25.7112C131.103 21.8084 130.01 18.7626 127.823 16.5738C125.637 14.3851 122.45 13.2907 118.262 13.2907H112.257V38.0525H118.262ZM157.618 27.3725C157.618 28.3218 157.591 29.0338 157.539 29.5085H139.009C139.061 31.4335 139.483 33.0553 140.273 34.3738C141.063 35.6924 142.103 36.6812 143.394 37.3405C144.685 37.9997 146.094 38.3294 147.622 38.3294C149.729 38.3294 151.494 37.8152 152.916 36.7867C154.338 35.7319 155.234 34.3079 155.603 32.5147H157.46C157.038 34.7035 155.958 36.4835 154.22 37.8547C152.481 39.1996 150.282 39.872 147.622 39.872C145.62 39.872 143.829 39.4237 142.249 38.5272C140.668 37.6306 139.43 36.3516 138.535 34.6903C137.639 33.0026 137.191 31.0379 137.191 28.7965C137.191 26.555 137.626 24.6036 138.495 22.9423C139.391 21.2809 140.629 20.0152 142.209 19.1449C143.789 18.2484 145.593 17.8 147.622 17.8C149.676 17.8 151.454 18.2484 152.956 19.1449C154.483 20.0152 155.642 21.1886 156.432 22.6654C157.223 24.1157 157.618 25.6848 157.618 27.3725ZM155.84 28.0449C155.919 26.1463 155.576 24.5377 154.813 23.2192C154.075 21.9006 153.061 20.9249 151.77 20.292C150.479 19.6328 149.084 19.3032 147.582 19.3032C146.081 19.3032 144.685 19.6328 143.394 20.292C142.13 20.9249 141.089 21.9006 140.273 23.2192C139.483 24.5377 139.061 26.1463 139.009 28.0449H155.84ZM170.142 39.872C167.745 39.872 165.783 39.3446 164.255 38.2898C162.754 37.235 161.911 35.7319 161.727 33.7805H163.544C163.675 35.1781 164.307 36.2857 165.44 37.1032C166.599 37.9206 168.167 38.3294 170.142 38.3294C171.775 38.3294 173.066 37.9206 174.014 37.1032C174.988 36.2593 175.476 35.2308 175.476 34.0178C175.476 33.1739 175.212 32.4884 174.686 31.9609C174.185 31.4072 173.553 30.9853 172.789 30.6952C172.025 30.4051 170.984 30.0886 169.668 29.7458C168.088 29.3239 166.81 28.9152 165.836 28.5196C164.861 28.0977 164.031 27.4779 163.347 26.6605C162.661 25.843 162.319 24.7486 162.319 23.3774C162.319 22.3753 162.622 21.4524 163.228 20.6085C163.833 19.7383 164.676 19.0526 165.757 18.5516C166.836 18.0506 168.061 17.8 169.431 17.8C171.67 17.8 173.474 18.367 174.844 19.5009C176.239 20.6085 176.99 22.1512 177.096 24.1289H175.318C175.239 22.7049 174.686 21.5446 173.658 20.648C172.631 19.7515 171.209 19.3032 169.391 19.3032C167.863 19.3032 166.599 19.6987 165.599 20.4898C164.597 21.2809 164.097 22.2435 164.097 23.3774C164.097 24.3795 164.374 25.1969 164.927 25.8298C165.506 26.4364 166.204 26.911 167.021 27.2538C167.863 27.5703 168.97 27.9131 170.34 28.2823C171.841 28.6778 173.039 29.0734 173.935 29.4689C174.856 29.8381 175.634 30.3919 176.266 31.1303C176.898 31.8423 177.214 32.8048 177.214 34.0178C177.214 35.1254 176.911 36.1275 176.306 37.024C175.699 37.9206 174.856 38.6195 173.777 39.1205C172.697 39.6215 171.485 39.872 170.142 39.872ZM181.524 28.7965C181.524 26.555 181.958 24.6036 182.827 22.9423C183.723 21.2809 184.947 20.0152 186.502 19.1449C188.082 18.2484 189.886 17.8 191.914 17.8C194.601 17.8 196.8 18.4725 198.513 19.8174C200.251 21.1623 201.33 22.9686 201.752 25.2365H199.895C199.552 23.3906 198.657 21.9402 197.209 20.8854C195.786 19.8306 194.021 19.3032 191.914 19.3032C190.334 19.3032 188.898 19.6592 187.608 20.3712C186.317 21.0568 185.277 22.1248 184.487 23.5752C183.723 24.9992 183.341 26.7396 183.341 28.7965C183.341 30.8797 183.723 32.6334 184.487 34.0574C185.277 35.4814 186.317 36.5494 187.608 37.2614C188.898 37.9734 190.334 38.3294 191.914 38.3294C194.021 38.3294 195.786 37.8019 197.209 36.7472C198.657 35.6924 199.552 34.2419 199.895 32.396H201.752C201.33 34.6375 200.251 36.4439 198.513 37.8152C196.774 39.1864 194.574 39.872 191.914 39.872C189.886 39.872 188.082 39.4237 186.502 38.5272C184.947 37.6306 183.723 36.3516 182.827 34.6903C181.958 33.0026 181.524 31.0379 181.524 28.7965ZM216.611 39.872C214.61 39.872 212.805 39.4237 211.199 38.5272C209.592 37.6306 208.328 36.3516 207.406 34.6903C206.51 33.0026 206.062 31.0379 206.062 28.7965C206.062 26.5814 206.523 24.6432 207.445 22.9818C208.367 21.2941 209.632 20.0152 211.238 19.1449C212.871 18.2484 214.689 17.8 216.69 17.8C218.692 17.8 220.497 18.2484 222.103 19.1449C223.71 20.0152 224.961 21.2809 225.856 22.9423C226.779 24.6036 227.239 26.555 227.239 28.7965C227.239 31.0379 226.779 33.0026 225.856 34.6903C224.934 36.3516 223.657 37.6306 222.024 38.5272C220.418 39.4237 218.613 39.872 216.611 39.872ZM216.611 38.2898C218.166 38.2898 219.614 37.947 220.957 37.2614C222.327 36.5494 223.42 35.4814 224.237 34.0574C225.053 32.6334 225.461 30.8797 225.461 28.7965C225.461 26.7396 225.053 24.9992 224.237 23.5752C223.42 22.1512 222.34 21.0964 220.997 20.4107C219.653 19.6987 218.205 19.3427 216.651 19.3427C215.097 19.3427 213.648 19.6987 212.305 20.4107C210.988 21.0964 209.921 22.1512 209.105 23.5752C208.288 24.9992 207.88 26.7396 207.88 28.7965C207.88 30.8797 208.275 32.6334 209.065 34.0574C209.881 35.4814 210.948 36.5494 212.265 37.2614C213.609 37.947 215.057 38.2898 216.611 38.2898ZM114.706 50.2073V77.6984H110.202V50.2073H114.706ZM132.196 55.5473C133.908 55.5473 135.436 55.9033 136.779 56.6153C138.149 57.3273 139.216 58.3821 139.98 59.7798C140.743 61.1774 141.125 62.8651 141.125 64.8429V77.6984H136.661V65.5153C136.661 63.5639 136.173 62.074 135.199 61.0456C134.224 59.9908 132.894 59.4633 131.209 59.4633C129.522 59.4633 128.179 59.9908 127.179 61.0456C126.204 62.074 125.717 63.5639 125.717 65.5153V77.6984H121.213V55.9033H125.717V58.3953C126.454 57.4988 127.389 56.7999 128.522 56.2989C129.68 55.7979 130.905 55.5473 132.196 55.5473ZM155.879 73.6638L162.042 55.9033H166.823L158.526 77.6984H153.152L144.895 55.9033H149.715L155.879 73.6638ZM190.772 66.2669C190.772 67.0844 190.719 67.8228 190.614 68.482H173.98C174.112 70.2225 174.758 71.6203 175.916 72.6749C177.075 73.7295 178.498 74.2571 180.183 74.2571C182.607 74.2571 184.319 73.2421 185.319 71.2113H190.179C189.521 73.2153 188.322 74.8639 186.584 76.1558C184.872 77.4216 182.738 78.0545 180.183 78.0545C178.102 78.0545 176.232 77.5932 174.573 76.67C172.94 75.7207 171.649 74.4019 170.701 72.7145C169.779 71.0001 169.318 69.0226 169.318 66.7811C169.318 64.5397 169.766 62.575 170.661 60.8873C171.583 59.1732 172.861 57.8548 174.494 56.9318C176.153 56.0088 178.05 55.5473 180.183 55.5473C182.238 55.5473 184.068 55.9957 185.675 56.8922C187.282 57.7888 188.533 59.0546 189.428 60.6896C190.324 62.2981 190.772 64.1572 190.772 66.2669ZM186.07 64.8429C186.044 63.1816 185.451 61.8499 184.292 60.8478C183.134 59.8457 181.698 59.3447 179.986 59.3447C178.432 59.3447 177.101 59.8457 175.995 60.8478C174.889 61.8235 174.231 63.1552 174.02 64.8429H186.07ZM203.699 78.0545C201.987 78.0545 200.446 77.7514 199.076 77.1447C197.733 76.5118 196.666 75.6677 195.876 74.6131C195.086 73.5317 194.665 72.3323 194.612 71.0136H199.274C199.353 71.9368 199.787 72.7144 200.578 73.3473C201.394 73.9541 202.408 74.2571 203.62 74.2571C204.884 74.2571 205.858 74.0198 206.543 73.5451C207.255 73.0443 207.61 72.4114 207.61 71.6465C207.61 70.8292 207.215 70.2225 206.425 69.8269C205.661 69.4313 204.436 68.9962 202.751 68.5216C201.117 68.0732 199.787 67.6381 198.76 67.2162C197.733 66.7943 196.838 66.1482 196.074 65.278C195.336 64.4078 194.967 63.2607 194.967 61.8367C194.967 60.6764 195.309 59.6216 195.995 58.6722C196.68 57.6966 197.654 56.9318 198.918 56.378C200.209 55.8242 201.684 55.5473 203.343 55.5473C205.819 55.5473 207.808 56.1802 209.309 57.446C210.837 58.6854 211.654 60.3863 211.759 62.5487H207.255C207.176 61.573 206.781 60.795 206.069 60.2149C205.358 59.6348 204.397 59.3447 203.185 59.3447C202 59.3447 201.091 59.5688 200.459 60.0171C199.827 60.4654 199.511 61.0588 199.511 61.7971C199.511 62.3772 199.722 62.8651 200.143 63.2607C200.564 63.6562 201.078 63.9727 201.684 64.21C202.29 64.421 203.185 64.6979 204.37 65.0407C205.951 65.4626 207.241 65.8977 208.242 66.346C209.27 66.7679 210.152 67.4008 210.889 68.2447C211.627 69.0885 212.009 70.2092 212.035 71.6069C212.035 72.8465 211.693 73.9541 211.008 74.9296C210.323 75.905 209.349 76.67 208.084 77.2238C206.846 77.7776 205.384 78.0545 203.699 78.0545ZM222.749 59.582V71.6465C222.749 72.4637 222.933 73.057 223.302 73.4265C223.698 73.769 224.356 73.9407 225.278 73.9407H228.044V77.6984H224.488C222.459 77.6984 220.906 77.2238 219.826 76.2745C218.745 75.3251 218.206 73.7825 218.206 71.6465V59.582H215.638V55.9033H218.206V50.4842H222.749V55.9033H228.044V59.582H222.749Z" fill="white"/>
</g>
<defs>
<clipPath id="clip0_1166_4953">
<rect width="230" height="89" fill="white"/>
</clipPath>
</defs>
</svg>
