<svg xmlns="http://www.w3.org/2000/svg" width="116" height="126" viewBox="0 0 116 126" fill="none">
  <path d="M15.206 83.6113C15.5541 82.4419 15.9644 81.2666 16.4339 80.0902C17.0077 78.6547 16.0316 77.0806 14.4797 76.9919L8.54392 76.653L4.7028 76.4336C3.77387 76.3808 2.89106 76.8972 2.50785 77.7396C1.57891 79.7822 0.778383 81.8268 0.112278 83.8605C-0.405358 85.4396 0.942916 87.0077 2.59614 86.7714L4.91946 86.4395L13.3521 85.2332C14.2409 85.1066 14.9512 84.4656 15.206 83.6113Z" fill="#FF7C04"/>
  <path d="M25.8204 65.0656C27.0152 63.6899 28.2912 62.3421 29.6465 61.0301C30.5985 60.109 30.5824 58.5878 29.5743 57.7274L25.691 54.4157L23.8231 52.8227C22.9503 52.079 21.6412 52.095 20.8045 52.8785C18.723 54.8295 16.7718 56.8422 14.952 58.8998C13.9338 60.0512 14.3271 61.8516 15.7425 62.4607L17.3115 63.1356L23.2111 65.6747C24.123 66.0674 25.1703 65.8132 25.8204 65.0656Z" fill="#FF7C04"/>
  <path d="M49.9466 47.4906C50.8595 47.0998 51.4183 46.1837 51.316 45.2007L50.6549 38.8455L50.4793 37.1558C50.3208 35.6315 48.7107 34.7174 47.3003 35.3355C44.7773 36.441 42.2584 37.6842 39.7605 39.0698C38.7563 39.6271 38.347 40.8623 38.7984 41.913L39.7655 44.163L41.7748 48.8394C42.2965 50.0536 43.7521 50.5272 44.9228 49.9021C46.589 49.0129 48.2663 48.2094 49.9466 47.4906Z" fill="#FF7C04"/>
  <path d="M100.679 31.7586L96.0011 1.9016C95.7574 0.343454 94.0159 -0.484976 92.6415 0.301574L65.8157 15.6567C64.2287 16.5649 64.3321 18.8747 65.9943 19.6393L67.6817 20.4159C68.5845 20.8316 69.1232 21.7847 68.9757 22.7626C64.01 55.6801 33.4826 88.0951 24.9506 84.7555C16.2331 81.3431 46.5157 57.2562 49.8633 54.6254C50.067 54.4649 50.2325 54.2784 50.3699 54.0601L56.5284 44.2527C57.6439 42.4752 55.9074 40.2412 53.9151 40.926C24.9636 50.872 -12.1837 107.337 29.3786 94.6596C67.17 83.1325 88.3078 47.028 94.5456 35.142C95.1043 34.0774 96.4014 33.6367 97.4989 34.1421C99.1341 34.8948 100.957 33.5301 100.679 31.7586Z" fill="#FF7C04"/>
  <path d="M71.578 104.721C92.0597 90.9889 102.866 81.8703 111.196 64.2004C111.547 63.4547 112.466 63.1706 113.172 63.6033L113.886 64.0389C114.847 64.6261 116.074 63.8884 115.996 62.7699L114.614 42.9008C114.55 41.9756 113.603 41.3765 112.732 41.7095L93.5886 49.0297C92.5172 49.4394 92.3817 50.8919 93.3598 51.49C93.9367 51.8429 94.1814 52.5607 93.9286 53.1857C92.2172 57.4215 92.2945 56.8184 89.922 60.783C86.3256 66.7963 81.9739 72.4019 77.0894 77.5518C72.205 82.6519 66.6153 87.3064 60.9394 91.3737C49.5825 99.5742 37.1101 106.494 23.806 111.786C23.6064 111.866 23.4048 111.944 23.2041 112.021C22.1909 112.411 22.0043 113.743 22.861 114.406C32.2377 121.666 44.0219 126 56.8304 126C82.9409 126 104.815 108.025 110.635 83.8502C110.973 82.4495 109.175 81.5224 108.233 82.617C94.6248 98.4308 80.9005 104.708 72.7597 107.181C71.2389 107.642 70.2599 105.604 71.578 104.721Z" fill="#374151"/>
</svg>
