<svg width="62" height="62" viewBox="0 0 62 62" fill="none" xmlns="http://www.w3.org/2000/svg">
<g id="verificado">
<path id="Vector" d="M40.2313 58.706C38.926 59.2915 37.561 59.5479 36.2028 59.8134C34.0904 60.2263 31.9484 60.209 29.807 60.1866C27.7152 60.1646 25.6662 59.822 23.6584 59.2856C21.6481 58.7485 19.703 58.0142 17.8461 57.051C15.9501 56.0674 14.175 54.917 12.5387 53.5416C11.7283 52.8606 10.9114 52.1889 10.1883 51.4157C7.7851 48.846 5.80988 45.9959 4.41027 42.7483C3.40958 40.4264 2.7271 38.0202 2.31101 35.5377C1.93433 33.2904 1.94014 31.0073 2.09042 28.7528C2.30195 25.5795 3.10568 22.5177 4.35994 19.5802C5.37804 17.1957 6.70234 14.9887 8.30559 12.969C9.54203 11.4114 10.9365 9.99332 12.494 8.72168C14.493 7.08958 16.6338 5.70496 18.965 4.63063C21.0702 3.6604 23.2841 3.003 25.5618 2.52612C28.1559 1.98298 30.7763 1.95142 33.3858 2.08902C36.2627 2.24073 39.0563 2.92888 41.7489 3.98854C43.7132 4.76158 45.5767 5.72427 47.3265 6.90212C49.132 8.11746 50.819 9.48662 52.3002 11.0804C55.4448 14.4642 57.7367 18.3558 59.0458 22.7982C59.5641 24.5569 59.9053 26.3516 60.0881 28.1849C60.1784 29.0899 60.138 29.986 60.1744 30.9412C59.9134 31.2053 59.7164 31.041 59.5276 30.8896C59.3393 30.7386 59.1772 30.5579 59.0064 30.3873C55.9461 27.3307 52.901 24.2588 49.8292 21.2138C49.5856 20.9723 49.4221 20.6669 49.1171 20.4317C49.0517 20.4034 49.0249 20.3931 48.9588 20.3648C48.8449 20.3013 48.7806 20.243 48.6835 20.1561C48.106 19.3135 47.4287 18.7036 46.4128 18.5315C45.4436 18.3672 44.5848 18.6113 43.9111 19.2779C40.7149 22.4408 37.4888 25.576 34.3822 28.826C32.1528 31.1585 29.8279 33.393 27.5791 35.7042C27.0342 36.2642 26.7308 36.249 26.1518 35.6728C23.5934 33.1267 21.053 30.5626 18.4902 28.0209C17.2688 26.8096 15.4014 26.8168 14.2024 28.016C13.03 29.1885 13.0078 31.0803 14.1828 32.2596C16.5453 34.6308 18.9019 37.0081 21.2807 39.3631C22.6699 40.7384 24.0213 42.1521 25.4759 43.522C25.6573 44.0692 26.1677 44.2357 26.5014 44.5739C28.2133 46.3088 29.9423 48.0268 31.6648 49.7513C34.3695 52.4592 37.0747 55.1666 39.7784 57.8754C39.9979 58.0953 40.3033 58.2794 40.2313 58.706Z" fill="#FF7C04"/>
<path id="Vector_2" d="M48.9727 20.2817C49.3452 20.2166 49.4983 20.4915 49.6906 20.6836C52.9599 23.9465 56.2245 27.2141 59.4926 30.4781C59.6761 30.6614 59.8309 30.8831 60.1277 30.9889C60.3355 34.7738 59.5507 38.3772 58.2038 41.8815C57.1705 44.5696 55.7194 47.0272 53.9415 49.2719C52.707 50.8307 51.3067 52.245 49.7532 53.5207C47.7544 55.1619 45.5992 56.5252 43.2718 57.6216C42.3185 58.0707 41.3442 58.4955 40.2586 58.7389C40.0368 58.5495 39.8714 58.3464 39.6872 58.162C35.0882 53.5598 30.4869 48.9601 25.8882 44.3576C25.6906 44.1599 25.4568 43.9903 25.3242 43.6805C25.4868 43.4886 25.6821 43.5161 25.8803 43.5831C27.2769 44.0559 28.3959 43.5528 29.3865 42.5899C31.8881 40.1584 34.2613 37.6005 36.7231 35.1298C38.5454 33.3008 40.3979 31.5013 42.1918 29.6448C44.111 27.6588 46.0321 25.675 47.9938 23.7309C48.7533 22.9781 48.9931 22.058 48.8972 21.0188C48.8756 20.785 48.7836 20.5382 48.9727 20.2817Z" fill="#DC6900"/>
<path id="Vector_3" d="M49.0102 20.2449C49.4974 21.8217 49.0526 23.0835 47.8966 24.2435C41.7361 30.4256 35.6116 36.6435 29.4702 42.8447C28.2306 44.0964 27.0017 44.3368 25.355 43.658C24.92 43.3835 24.577 43.0753 24.2481 42.7458C20.8689 39.3607 17.4815 35.9837 14.1052 32.5956C12.7264 31.2119 12.663 29.2054 13.9301 27.873C15.2432 26.4922 17.3356 26.475 18.7383 27.8657C21.1889 30.2956 23.6222 32.743 26.0627 35.1831C26.9013 36.0216 26.9008 36.0211 27.7409 35.1728C32.9669 29.8957 38.1917 24.6174 43.4205 19.3431C44.5528 18.201 45.9527 17.9098 47.2838 18.5134C47.9498 18.8153 48.4559 19.2879 48.8327 19.9561C48.9518 20.0115 48.981 20.0858 49.0133 20.2082C49.0309 20.2458 49.0157 20.2384 49.0102 20.2449Z" fill="white"/>
<path id="Vector_4" d="M49.024 20.2052C48.9846 20.1834 48.9383 20.121 48.8755 20.0211C48.9117 20.044 48.9643 20.1043 49.024 20.2052Z" fill="#FF7C04"/>
</g>
</svg>
